<svg width="200" height="88" viewBox="0 0 200 88" fill="none" xmlns="http://www.w3.org/2000/svg">
<path d="M52.9605 45.6586C50.9078 45.6586 48.9137 45.0135 46.9783 43.7232C45.0721 42.4622 43.4446 40.3509 42.0957 37.3891C41.5092 36.0695 41.0253 34.7352 40.6441 33.3862C40.2922 32.0373 40.0283 30.7763 39.8523 29.6033C39.6764 28.4304 39.5884 27.4626 39.5884 26.7002C39.5884 25.7618 39.6911 25.234 39.8963 25.1167C40.4535 25.1753 41.3772 24.9407 42.6675 24.4129C43.9871 23.885 45.5413 23.1079 47.3302 22.0815C49.1483 21.0552 51.0984 19.8235 53.1804 18.3866C55.2918 16.9204 57.4032 15.2782 59.5146 13.4601C61.6553 11.6419 63.708 9.67717 65.6728 7.56579C67.6375 5.4544 69.3677 3.24039 70.8633 0.923731C71.0685 0.601158 71.2298 0.366559 71.3471 0.219935C71.4644 0.0733118 71.5817 0 71.699 0C71.8456 0 71.9776 0.0733118 72.0949 0.219935C72.2122 0.337235 72.2709 0.469196 72.2709 0.61582C72.2709 0.850418 72.1682 1.129 71.9629 1.45157C70.5554 3.79756 68.8839 6.09955 66.9484 8.35755C65.0423 10.5862 63.0042 12.683 60.8342 14.6477C58.6642 16.6125 56.4795 18.3866 54.2801 19.9702C52.0808 21.5537 49.984 22.8733 47.99 23.929C45.9959 24.9847 44.2364 25.7031 42.7115 26.0844C42.6235 26.0257 42.5795 26.1723 42.5795 26.5242C42.5795 27.0228 42.6822 27.8292 42.8875 28.9435C43.0927 30.0285 43.4006 31.2749 43.8112 32.6824C44.2511 34.0607 44.7789 35.4683 45.3947 36.9052C46.5091 39.5151 47.814 41.3039 49.3096 42.2716C50.8345 43.2687 52.4033 43.7672 54.0162 43.7672C55.0426 43.7672 56.0983 43.5619 57.1833 43.1514C58.2683 42.7408 59.2653 42.169 60.1744 41.4359C61.0835 40.7321 61.7873 39.8963 62.2858 38.9286C62.4617 38.6354 62.5937 38.4887 62.6817 38.4887C62.8869 38.4887 62.9896 38.606 62.9896 38.8406C62.9896 38.9286 62.9602 39.0166 62.9016 39.1046C62.8723 39.2219 62.7843 39.4418 62.6377 39.7644C62.2271 40.5855 61.538 41.4505 60.5703 42.3596C59.6319 43.298 58.5029 44.0751 57.1833 44.6909C55.893 45.3361 54.4854 45.6586 52.9605 45.6586ZM15.6154 45.0868C13.6213 45.0868 11.6859 44.8082 9.80913 44.2511C7.96167 43.7232 6.29016 42.9314 4.7946 41.8757C3.32836 40.8201 2.15537 39.5298 1.27563 38.0049C0.425209 36.48 0 34.7498 0 32.8144C0 31.4068 0.205273 30.1605 0.61582 29.0755C1.05569 27.9612 1.58354 27.0374 2.19936 26.3043C2.8445 25.5712 3.47498 25.014 4.0908 24.6328C4.73595 24.2516 5.26379 24.061 5.67434 24.061C5.96759 24.061 6.11421 24.1489 6.11421 24.3249C6.11421 24.4715 6.0409 24.5888 5.89428 24.6768C5.21981 25.0287 4.53067 25.5419 3.82688 26.2163C3.12309 26.8908 2.53659 27.7705 2.0674 28.8556C1.5982 29.9406 1.3636 31.2895 1.3636 32.9024C1.3636 34.6619 1.73016 36.1721 2.46328 37.433C3.22572 38.6647 4.2081 39.6764 5.41042 40.4682C6.64206 41.2599 7.96167 41.8318 9.36926 42.1837C10.7768 42.5649 12.1258 42.7555 13.4161 42.7555C16.2899 42.7555 18.9731 42.1983 21.4657 41.084C23.9583 39.9696 26.231 38.4887 28.2837 36.6413C30.3658 34.7645 32.1986 32.6824 33.7821 30.3951C35.3657 28.1078 36.6706 25.7911 37.697 23.4451C38.0782 22.5947 38.5327 21.583 39.0606 20.41C39.5884 19.2077 40.1603 17.9321 40.7761 16.5831C41.3919 15.2342 41.993 13.9146 42.5795 12.6243C43.166 11.334 43.6939 10.1757 44.1631 9.14932C44.6616 8.09363 45.0575 7.2872 45.3507 6.73003C43.386 6.96463 41.2599 7.18456 38.9726 7.38984C36.7146 7.56579 34.5592 7.94701 32.5065 8.5335C30.2192 9.17865 28.3424 10.117 26.8761 11.3487C25.4392 12.5803 24.3689 13.9146 23.6651 15.3515C22.9906 16.7884 22.6534 18.1374 22.6534 19.3983C22.6534 20.9232 23.0346 22.1842 23.797 23.1812C24.5595 24.1489 25.6592 24.6328 27.0961 24.6328C28.1811 24.6328 29.1488 24.3249 29.9992 23.7091C30.8496 23.0639 31.5241 22.2428 32.0226 21.2458C32.5212 20.2194 32.7704 19.1344 32.7704 17.9907C32.7704 17.5215 32.7264 17.1257 32.6385 16.8031C32.5505 16.4805 32.5065 16.2313 32.5065 16.0553C32.5065 15.85 32.5798 15.7474 32.7264 15.7474C32.9317 15.7474 33.1223 15.9233 33.2983 16.2752C33.5915 16.9497 33.7381 17.6095 33.7381 18.2547C33.7381 19.6329 33.4009 20.8792 32.7264 21.9936C32.052 23.0786 31.1869 23.9437 30.1312 24.5888C29.0755 25.234 27.9612 25.5565 26.7882 25.5565C25.4099 25.5565 24.2076 25.234 23.1812 24.5888C22.1842 23.9143 21.4071 23.0346 20.8499 21.9496C20.2927 20.8646 20.0141 19.6916 20.0141 18.4306C20.0141 16.9937 20.41 15.5421 21.2018 14.0759C21.9936 12.5803 23.2692 11.2314 25.0287 10.0291C26.7882 8.79743 29.1048 7.85903 31.9786 7.21389C34.3833 6.68605 36.8319 6.34881 39.3245 6.20219C41.8171 6.02624 44.0165 5.85029 45.9226 5.67434C46.9489 4.0908 47.7847 3.09376 48.4298 2.68321C49.075 2.24334 49.6615 2.02341 50.1893 2.02341C50.7172 2.02341 51.1277 2.17003 51.421 2.46328C51.7435 2.75653 51.9048 3.10842 51.9048 3.51897C51.9048 4.10547 51.4943 4.73595 50.6732 5.41042C49.8814 6.05556 48.5325 6.48077 46.6264 6.68604C45.688 8.41621 44.8229 10.3516 44.0311 12.4923C43.2393 14.6037 42.4476 16.8177 41.6558 19.1344C40.864 21.4511 39.999 23.7531 39.0606 26.0404C37.477 29.8526 35.6003 33.1956 33.4302 36.0695C31.2602 38.9139 28.7089 41.128 25.7765 42.7115C22.844 44.295 19.457 45.0868 15.6154 45.0868ZM47.4621 5.58637C48.1952 5.52772 48.899 5.32244 49.5735 4.97055C50.248 4.58932 50.5852 4.17878 50.5852 3.73891C50.5852 3.44566 50.4386 3.29903 50.1453 3.29903C49.8814 3.29903 49.5148 3.47498 49.0456 3.82688C48.5765 4.14945 48.0486 4.73595 47.4621 5.58637Z" fill="white"/>
<path d="M63.919 37.653C63.2445 37.653 62.6433 37.4624 62.1155 37.0811C61.617 36.6999 61.3677 35.9228 61.3677 34.7498C61.3677 34.2513 61.397 33.7821 61.4557 33.3422C61.5437 32.9024 61.6463 32.4332 61.7636 31.9346C61.4997 32.3745 61.1331 32.917 60.6639 33.5622C60.1947 34.2073 59.6669 34.8378 59.0804 35.4536C58.5232 36.0694 57.9367 36.5826 57.3209 36.9932C56.7344 37.4037 56.1772 37.609 55.6494 37.609C54.887 37.609 54.2711 37.2718 53.8019 36.5973C53.3327 35.8935 53.0981 34.9844 53.0981 33.8701C53.0981 32.6678 53.3767 31.3775 53.9339 29.9992C54.4911 28.621 55.2535 27.3013 56.2212 26.0404C57.1889 24.7794 58.3033 23.753 59.5643 22.9613C60.8252 22.1695 62.1448 21.7736 63.5231 21.7736C64.1976 21.7736 64.8427 21.8909 65.4585 22.1255C66.0743 22.3308 66.6169 22.6827 67.086 23.1812C67.2913 23.3865 67.394 23.6211 67.394 23.885C67.394 24.061 67.3206 24.2076 67.174 24.3249C67.0274 24.4422 66.8368 24.4715 66.6022 24.4128C66.2796 23.3865 65.5905 22.8733 64.5348 22.8733C64.0363 22.8733 63.4644 23.0346 62.8193 23.3572C62.0275 23.7677 61.1771 24.4275 60.268 25.3366C59.3883 26.2163 58.5525 27.228 57.7608 28.3717C56.9983 29.486 56.3679 30.615 55.8693 31.7587C55.3708 32.9024 55.1216 33.9434 55.1216 34.8818C55.1216 35.8495 55.4881 36.3334 56.2212 36.3334C56.8664 36.3334 57.5262 36.0255 58.2006 35.4096C58.9044 34.7938 59.5642 34.0314 60.1801 33.1223C60.8252 32.1839 61.4117 31.2602 61.9396 30.3511C62.4674 29.442 62.8779 28.7089 63.1712 28.1518C63.6111 27.36 64.0216 26.7002 64.4028 26.1723C64.7841 25.6445 65.3266 25.3806 66.0304 25.3806C66.3529 25.3806 66.6755 25.4246 66.9981 25.5125C67.3206 25.6005 67.6579 25.6152 68.0098 25.5565C67.13 26.4363 66.3529 27.4773 65.6785 28.6796C65.0333 29.8819 64.5348 31.0696 64.1829 32.2426C63.831 33.3862 63.6551 34.3539 63.6551 35.1457C63.6551 36.0255 63.9483 36.4653 64.5348 36.4653C65.004 36.4653 65.5025 36.2014 66.0304 35.6736C66.5875 35.1457 67.1154 34.4859 67.6139 33.6941C68.1417 32.873 68.6256 32.0519 69.0655 31.2309C69.5053 30.3804 69.8572 29.6473 70.1212 29.0315C70.2678 29.0315 70.3851 29.0462 70.4731 29.0755C70.5904 29.1048 70.649 29.2221 70.649 29.4274C70.6197 29.5447 70.561 29.6766 70.4731 29.8233C70.4144 29.9406 70.3118 30.1605 70.1651 30.4831C69.9305 30.9523 69.608 31.5828 69.1974 32.3745C68.7869 33.1663 68.303 33.9727 67.7459 34.7938C67.1887 35.5856 66.5875 36.26 65.9424 36.8172C65.2972 37.3744 64.6228 37.653 63.919 37.653Z" fill="white"/>
<path d="M84.874 20.2341C84.1409 20.2341 83.3638 20.1314 82.5427 19.9262C81.7509 19.7209 80.9445 19.5156 80.1234 19.3103C79.3316 19.1051 78.5839 19.0024 77.8801 19.0024C77.2936 19.0024 76.7511 19.1051 76.2525 19.3103C75.754 19.4863 75.3435 19.8529 75.0209 20.41L74.8889 20.63C74.801 20.7473 74.7277 20.8059 74.669 20.8059C74.6104 20.8059 74.5517 20.7619 74.4931 20.674C74.4344 20.586 74.4197 20.4833 74.4491 20.366C74.7716 19.5449 75.3581 18.8998 76.2086 18.4306C77.059 17.9321 78.0267 17.6828 79.1117 17.6828C79.8742 17.6828 80.8419 17.7855 82.0149 17.9907C83.2172 18.196 84.3022 18.2986 85.2699 18.2986C85.8857 18.2986 86.5749 18.2693 87.3373 18.2107C88.1291 18.1227 88.8769 17.9321 89.5806 17.6388C90.3138 17.3163 90.8709 16.8031 91.2522 16.0993C91.5454 16.0993 91.692 16.2019 91.692 16.4072C91.1349 17.7268 90.3724 18.6945 89.4047 19.3103C88.437 19.9262 86.9268 20.2341 84.874 20.2341ZM67.3671 37.521C67.0446 37.521 66.7806 37.521 66.5754 37.521C66.3408 37.5503 66.1062 37.6237 65.8716 37.741C66.9566 35.6589 67.983 33.5768 68.9507 31.4948C69.9184 29.3834 70.9008 27.3893 71.8978 25.5125C72.4843 24.4568 72.9682 23.7237 73.3494 23.3132C73.7599 22.8733 74.3024 22.6534 74.9769 22.6534C75.2115 22.6534 75.4608 22.6974 75.7247 22.7853C75.9886 22.844 76.2525 22.8733 76.5165 22.8733C76.6924 22.8733 76.8244 22.8586 76.9124 22.8293C76.5018 23.0639 75.974 23.6504 75.3288 24.5888C74.6837 25.4979 74.0239 26.5536 73.3494 27.7559C72.6749 28.9582 72.0738 30.0872 71.5459 31.1429C72.1031 30.4684 72.6749 29.7939 73.2614 29.1195C73.8772 28.445 74.5517 27.7999 75.2848 27.184C75.93 26.6269 76.6044 26.0257 77.3082 25.3806C78.0414 24.7061 78.7598 24.1343 79.4636 23.6651C80.1674 23.1959 80.7832 22.9613 81.3111 22.9613C81.5163 22.9613 81.6483 22.9759 81.707 23.0053C82.2641 23.2399 82.5427 23.6211 82.5427 24.1489C82.5427 24.3249 82.4694 24.5888 82.3228 24.9407C81.9415 25.9377 81.443 26.9641 80.8272 28.0198C80.2407 29.0462 79.6835 30.0872 79.1557 31.1429C79.5956 30.615 80.1381 29.9699 80.7832 29.2075C81.4577 28.445 82.1322 27.7705 82.8066 27.184C83.4518 26.5975 84.2729 25.9817 85.2699 25.3366C86.267 24.6914 87.2493 24.1343 88.217 23.6651C89.1848 23.1959 89.9619 22.9613 90.5484 22.9613C90.7536 22.9613 90.9003 22.9759 90.9882 23.0053C90.9882 23.0053 90.8269 23.2985 90.5044 23.885C90.1818 24.4422 89.7713 25.19 89.2727 26.1284C88.8035 27.0374 88.3197 28.0198 87.8212 29.0755C87.3226 30.1019 86.8681 31.0989 86.4576 32.0666C86.0763 33.005 85.8271 33.7968 85.7098 34.4419C85.6218 34.8231 85.5778 35.175 85.5778 35.4976C85.5778 35.9668 85.6658 36.2747 85.8417 36.4213C86.0177 36.568 86.2083 36.6413 86.4136 36.6413C87.0001 36.6413 87.5719 36.392 88.1291 35.8935C88.7156 35.395 89.2874 34.7645 89.8446 34.002C90.4017 33.2103 90.9003 32.3745 91.3401 31.4948C91.8093 30.615 92.2052 29.7939 92.5278 29.0315C92.8797 29.0315 93.0556 29.1635 93.0556 29.4274C92.7331 30.2192 92.3225 31.0989 91.824 32.0666C91.3548 33.005 90.8123 33.8994 90.1965 34.7498C89.5806 35.6002 88.9062 36.304 88.1731 36.8612C87.4399 37.4184 86.6482 37.697 85.7978 37.697C85.1819 37.697 84.5954 37.4917 84.0383 37.0811C83.5104 36.6706 83.2465 35.9082 83.2465 34.7938C83.2465 33.5915 83.5251 32.3892 84.0823 31.1869C84.6688 29.9846 85.2699 28.8849 85.8857 27.8878C86.179 27.3893 86.3256 26.9934 86.3256 26.7002C86.3256 26.3483 86.1497 26.1723 85.7978 26.1723C85.5045 26.1723 85.094 26.319 84.5661 26.6122C84.0676 26.9055 83.4371 27.4186 82.6747 28.1518C82.2055 28.5916 81.6483 29.2075 81.0032 29.9992C80.3873 30.7617 79.7569 31.5974 79.1117 32.5065C78.4666 33.4156 77.9094 34.31 77.4402 35.1897C76.971 36.0694 76.6631 36.8466 76.5165 37.521C76.0766 37.521 75.7247 37.3451 75.4608 36.9932C75.1969 36.612 75.0649 36.1721 75.0649 35.6736C75.0649 35.5856 75.0649 35.4976 75.0649 35.4096C75.0649 35.3217 75.0796 35.219 75.1089 35.1017C75.2555 34.1927 75.4901 33.4302 75.8127 32.8144C76.1352 32.1693 76.5018 31.4215 76.9124 30.5711C77.1176 30.1898 77.3522 29.75 77.6161 29.2514C77.8801 28.7236 78.1147 28.2251 78.3199 27.7559C78.5252 27.2574 78.6278 26.8468 78.6278 26.5242C78.6278 26.231 78.5106 26.0844 78.276 26.0844C78.012 26.0844 77.6601 26.2163 77.2203 26.4802C76.8097 26.7442 76.4138 27.0521 76.0326 27.404C75.6514 27.7266 75.3581 27.9758 75.1529 28.1518C74.4197 28.8556 73.5253 29.8673 72.4697 31.1869C71.4433 32.5065 70.3143 34.3833 69.0826 36.8172C68.9067 37.1398 68.7014 37.3451 68.4668 37.433C68.2322 37.4917 67.8657 37.521 67.3671 37.521Z" fill="white"/>
<path d="M95.6861 37.697C94.6011 37.697 93.6187 37.3451 92.739 36.6413C91.8886 35.9375 91.4634 34.8671 91.4634 33.4302C91.4634 32.2279 91.7273 30.9523 92.2551 29.6033C92.8123 28.2544 93.5308 26.9934 94.4105 25.8204C95.3196 24.6181 96.3166 23.6504 97.4016 22.9173C98.516 22.1548 99.6303 21.7736 100.745 21.7736C101.302 21.7736 101.844 21.9349 102.372 22.2575C102.9 22.5801 103.164 23.1372 103.164 23.929C103.164 24.6621 102.885 25.4685 102.328 26.3483C101.771 27.228 100.979 28.0491 99.9529 28.8116C99.513 29.1341 98.9559 29.442 98.2814 29.7353C97.6069 30.0285 96.9324 30.2778 96.258 30.4831C95.5835 30.659 95.0263 30.747 94.5865 30.747C94.4398 31.0989 94.2932 31.5681 94.1466 32.1546C94.0293 32.7411 93.9706 33.3422 93.9706 33.9581C93.9706 34.6912 94.1173 35.351 94.4105 35.9375C94.7038 36.524 95.2463 36.8172 96.038 36.8172C97.0058 36.8172 97.9002 36.5386 98.7212 35.9815C99.5717 35.4243 100.319 34.7205 100.965 33.8701C101.639 33.0197 102.211 32.1546 102.68 31.2748C103.149 30.3951 103.516 29.6473 103.78 29.0315C104.132 29.0315 104.308 29.1635 104.308 29.4274C103.926 30.2485 103.487 31.1429 102.988 32.1106C102.519 33.0783 101.947 33.9874 101.273 34.8378C100.627 35.6589 99.8356 36.348 98.8972 36.9052C97.9881 37.433 96.9178 37.697 95.6861 37.697ZM94.8944 29.9552C95.3049 29.9552 95.9941 29.8086 96.9618 29.5154C97.9295 29.1928 98.8092 28.6943 99.601 28.0198C100.363 27.3453 100.95 26.6122 101.36 25.8204C101.771 24.9993 101.976 24.3102 101.976 23.753C101.976 23.1079 101.742 22.7853 101.273 22.7853C100.921 22.7853 100.437 23.0199 99.8209 23.4891C99.2051 23.9583 98.4427 24.7501 97.5336 25.8644C96.9764 26.5682 96.4486 27.3307 95.9501 28.1518C95.4515 28.9728 95.0996 29.574 94.8944 29.9552Z" fill="white"/>
<path d="M96.867 49.5295C96.5151 49.5295 96.2219 49.4855 95.9873 49.3975C95.7234 49.3389 95.3861 49.3096 94.9756 49.3096C95.0929 49.1336 95.3861 48.6204 95.8553 47.77C96.2952 46.9489 96.8377 45.9079 97.4828 44.6469C98.128 43.4153 98.8171 42.0664 99.5502 40.6001C100.254 39.1632 100.943 37.741 101.618 36.3334C102.292 34.8965 102.864 33.5768 103.333 32.3745C103.832 31.1429 104.154 30.1605 104.301 29.4274C104.154 29.4274 104.022 29.3981 103.905 29.3394C103.788 29.2808 103.744 29.1781 103.773 29.0315C103.773 29.0315 103.861 28.7676 104.037 28.2397C104.213 27.7119 104.389 27.0814 104.565 26.3483C104.741 25.5858 104.829 24.8967 104.829 24.2809C104.829 23.8703 104.785 23.5184 104.697 23.2252C104.609 22.932 104.447 22.7707 104.213 22.7413L106.412 22.3894C106.588 22.3601 106.749 22.3455 106.896 22.3455C107.043 22.3161 107.175 22.3015 107.292 22.3015C107.556 22.3015 107.732 22.4041 107.82 22.6094C107.937 22.7853 107.996 23.1665 107.996 23.753C107.996 24.4862 107.864 25.4246 107.6 26.5682C107.365 27.6826 107.087 28.6649 106.764 29.5154C107.087 28.9875 107.497 28.313 107.996 27.492C108.524 26.6709 109.125 25.8351 109.799 24.9847C110.474 24.1343 111.178 23.4305 111.911 22.8733C112.644 22.2868 113.362 21.9936 114.066 21.9936C114.213 21.9936 114.403 22.0229 114.638 22.0815C115.459 22.2868 116.031 22.6974 116.353 23.3132C116.705 23.8997 116.881 24.6035 116.881 25.4246C116.881 26.3043 116.705 27.272 116.353 28.3277C116.031 29.3834 115.591 30.4244 115.034 31.4508C114.477 32.4478 113.861 33.3569 113.186 34.178C112.365 35.2044 111.383 36.0255 110.239 36.6413C109.095 37.2571 107.922 37.565 106.72 37.565C105.635 37.565 104.623 37.2864 103.685 36.7292L99.4183 47.2422C99.0077 48.2392 98.5972 48.8697 98.1866 49.1336C97.7761 49.3975 97.3362 49.5295 96.867 49.5295ZM105.313 36.6413C106.134 36.6413 107.057 36.2601 108.084 35.4976C109.11 34.7352 110.092 33.7674 111.031 32.5945C111.999 31.3921 112.805 30.1898 113.45 28.9875C113.89 28.1664 114.213 27.4186 114.418 26.7442C114.623 26.0404 114.726 25.4392 114.726 24.9407C114.726 23.797 114.315 23.2252 113.494 23.2252C113.113 23.2252 112.614 23.4305 111.999 23.841C111.412 24.2516 110.723 24.9993 109.931 26.0844C109.081 27.2574 108.142 28.7383 107.116 30.5271C106.119 32.2865 105.093 34.1487 104.037 36.1134C104.389 36.4653 104.814 36.6413 105.313 36.6413Z" fill="white"/>
<path d="M119.826 37.521C119.503 37.521 119.107 37.4477 118.638 37.3011C118.198 37.1545 117.803 36.8905 117.451 36.5093C117.128 36.0988 116.967 35.4976 116.967 34.7058C116.967 33.9434 117.128 33.049 117.451 32.0226C117.773 30.9963 118.169 29.9259 118.638 28.8116C119.137 27.6972 119.635 26.6562 120.134 25.6885C120.662 24.6914 121.102 23.885 121.453 23.2692C121.805 22.624 122.363 22.3015 123.125 22.3015H125.852C125.53 22.5654 125.207 22.844 124.884 23.1372C124.562 23.4305 124.195 23.8703 123.785 24.4568C123.404 25.0433 122.905 25.9084 122.289 27.0521C122.025 27.5213 121.732 28.1371 121.409 28.8995C121.087 29.6327 120.764 30.3951 120.442 31.1869C120.119 31.9786 119.855 32.7264 119.65 33.4302C119.445 34.1047 119.342 34.6472 119.342 35.0577C119.342 36.0255 119.665 36.5093 120.31 36.5093C121.014 36.5093 121.864 35.9375 122.861 34.7938C123.682 33.8261 124.489 32.6678 125.28 31.3188C126.072 29.9699 126.82 28.577 127.524 27.1401C128.257 25.7031 128.902 24.4129 129.459 23.2692C129.782 22.624 130.354 22.3015 131.175 22.3015H133.594C132.949 22.8293 132.289 23.6211 131.615 24.6768C130.969 25.7325 130.251 27.0814 129.459 28.7236C129.254 29.1635 128.99 29.7206 128.667 30.3951C128.345 31.0696 128.052 31.788 127.788 32.5505C127.553 33.3129 127.436 34.0754 127.436 34.8378C127.436 35.8642 127.802 36.3773 128.535 36.3773C129.532 36.3773 130.5 35.6882 131.439 34.31C132.377 32.9317 133.301 31.1722 134.21 29.0315C134.444 29.0315 134.576 29.0462 134.606 29.0755C134.664 29.1048 134.708 29.2221 134.738 29.4274C134.415 30.2192 134.019 31.0842 133.55 32.0226C133.11 32.9317 132.597 33.8114 132.01 34.6619C131.453 35.5123 130.823 36.2014 130.119 36.7292C129.444 37.2571 128.697 37.521 127.876 37.521C127.142 37.521 126.541 37.2571 126.072 36.7292C125.603 36.1721 125.368 35.395 125.368 34.3979C125.368 33.6062 125.515 32.7557 125.808 31.8467C125.31 32.7264 124.738 33.6062 124.093 34.4859C123.448 35.3656 122.758 36.0988 122.025 36.6853C121.292 37.2424 120.559 37.521 119.826 37.521Z" fill="white"/>
<path d="M133.877 36.8612C133.848 37.1545 133.672 37.3597 133.349 37.477C133.056 37.565 132.763 37.609 132.47 37.609C132.001 37.609 131.649 37.6823 131.414 37.8289C131.414 37.2424 131.575 36.4213 131.898 35.3656C132.22 34.2806 132.602 33.1223 133.042 31.8907C133.511 30.6297 133.98 29.4567 134.449 28.3717C134.948 27.2574 135.358 26.3923 135.681 25.7765C136.385 24.4862 136.971 23.6651 137.44 23.3132C137.939 22.9613 138.511 22.7853 139.156 22.7853C139.742 22.7853 140.153 22.8147 140.387 22.8733C140.651 22.9026 140.842 22.9173 140.959 22.9173C140.314 23.2692 139.552 24.0903 138.672 25.3806C137.822 26.6709 137.015 28.1078 136.253 29.6913C136.487 29.4567 136.751 29.2661 137.044 29.1195C137.367 28.9728 137.734 28.8995 138.144 28.8995C138.701 28.8995 139.185 29.0022 139.596 29.2074C140.006 29.3834 140.578 29.4714 141.311 29.4714C141.868 29.4714 142.235 29.2954 142.411 28.9435C142.88 27.8878 143.364 26.8615 143.862 25.8644C144.361 24.8381 144.771 23.9876 145.094 23.3132C145.27 22.932 145.505 22.6827 145.798 22.5654C146.12 22.4481 146.472 22.3894 146.854 22.3894H149.229C148.73 22.8 148.305 23.1812 147.953 23.5331C147.631 23.8557 147.308 24.2516 146.986 24.7208C146.692 25.19 146.311 25.8644 145.842 26.7442C145.461 27.4773 145.006 28.4303 144.478 29.6033C143.95 30.7763 143.555 31.8174 143.291 32.7264C143.173 33.049 143.071 33.4302 142.983 33.8701C142.924 34.31 142.895 34.7205 142.895 35.1017C142.895 35.5709 142.968 35.9668 143.115 36.2894C143.261 36.6119 143.511 36.7732 143.862 36.7732C144.42 36.7732 144.991 36.5386 145.578 36.0694C146.164 35.5709 146.736 34.9404 147.293 34.178C147.851 33.3862 148.364 32.5358 148.833 31.6267C149.331 30.7177 149.757 29.8526 150.109 29.0315C150.343 29.0315 150.49 29.0608 150.548 29.1195C150.607 29.1781 150.636 29.2808 150.636 29.4274C150.285 30.3071 149.845 31.2455 149.317 32.2426C148.818 33.2103 148.232 34.1193 147.557 34.9698C146.912 35.8202 146.194 36.524 145.402 37.0811C144.64 37.609 143.818 37.8729 142.939 37.8729C142.059 37.8729 141.428 37.609 141.047 37.0811C140.695 36.5533 140.519 35.8935 140.519 35.1017C140.519 34.6912 140.563 34.2513 140.651 33.7821C140.769 33.3129 140.901 32.8437 141.047 32.3745C141.165 32.0226 141.297 31.6561 141.443 31.2748C141.59 30.8643 141.751 30.4684 141.927 30.0872C141.751 30.3218 141.531 30.5124 141.267 30.659C141.003 30.7763 140.666 30.835 140.255 30.835C139.845 30.835 139.508 30.7763 139.244 30.659C138.98 30.5417 138.701 30.4244 138.408 30.3071C138.115 30.1898 137.734 30.1312 137.264 30.1312C136.971 30.1312 136.663 30.1898 136.341 30.3071C136.047 30.4244 135.813 30.6883 135.637 31.0989C135.197 32.1253 134.816 33.137 134.493 34.134C134.2 35.131 133.995 36.0401 133.877 36.8612Z" fill="white"/>
<path d="M159.668 37.653C158.994 37.653 158.393 37.4624 157.865 37.0811C157.367 36.6999 157.117 35.9228 157.117 34.7498C157.117 34.2513 157.147 33.7821 157.205 33.3422C157.293 32.9024 157.396 32.4332 157.513 31.9346C157.249 32.3745 156.883 32.917 156.413 33.5622C155.944 34.2073 155.416 34.8378 154.83 35.4536C154.273 36.0694 153.686 36.5826 153.07 36.9932C152.484 37.4037 151.927 37.609 151.399 37.609C150.636 37.609 150.021 37.2718 149.551 36.5973C149.082 35.8935 148.848 34.9844 148.848 33.8701C148.848 32.6678 149.126 31.3775 149.683 29.9992C150.241 28.621 151.003 27.3013 151.971 26.0404C152.938 24.7794 154.053 23.753 155.314 22.9613C156.575 22.1695 157.894 21.7736 159.273 21.7736C159.947 21.7736 160.592 21.8909 161.208 22.1255C161.824 22.3308 162.366 22.6827 162.836 23.1812C163.041 23.3865 163.143 23.6211 163.143 23.885C163.143 24.061 163.07 24.2076 162.924 24.3249C162.777 24.4422 162.586 24.4715 162.352 24.4128C162.029 23.3865 161.34 22.8733 160.284 22.8733C159.786 22.8733 159.214 23.0346 158.569 23.3572C157.777 23.7677 156.927 24.4275 156.018 25.3366C155.138 26.2163 154.302 27.228 153.51 28.3717C152.748 29.486 152.117 30.615 151.619 31.7587C151.12 32.9024 150.871 33.9434 150.871 34.8818C150.871 35.8495 151.238 36.3334 151.971 36.3334C152.616 36.3334 153.276 36.0255 153.95 35.4096C154.654 34.7938 155.314 34.0314 155.93 33.1223C156.575 32.1839 157.161 31.2602 157.689 30.3511C158.217 29.442 158.627 28.7089 158.921 28.1518C159.361 27.36 159.771 26.7002 160.152 26.1723C160.534 25.6445 161.076 25.3806 161.78 25.3806C162.102 25.3806 162.425 25.4246 162.748 25.5125C163.07 25.6005 163.407 25.6152 163.759 25.5565C162.88 26.4363 162.102 27.4773 161.428 28.6796C160.783 29.8819 160.284 31.0696 159.932 32.2426C159.581 33.3862 159.405 34.3539 159.405 35.1457C159.405 36.0255 159.698 36.4653 160.284 36.4653C160.754 36.4653 161.252 36.2014 161.78 35.6736C162.337 35.1457 162.865 34.4859 163.363 33.6941C163.891 32.873 164.375 32.0519 164.815 31.2309C165.255 30.3804 165.607 29.6473 165.871 29.0315C166.017 29.0315 166.135 29.0462 166.223 29.0755C166.34 29.1048 166.399 29.2221 166.399 29.4274C166.369 29.5447 166.311 29.6766 166.223 29.8233C166.164 29.9406 166.061 30.1605 165.915 30.4831C165.68 30.9523 165.357 31.5828 164.947 32.3745C164.536 33.1663 164.053 33.9727 163.495 34.7938C162.938 35.5856 162.337 36.26 161.692 36.8172C161.047 37.3744 160.372 37.653 159.668 37.653Z" fill="white"/>
<path d="M70.2742 80.1055C67.6057 80.1055 65.2304 79.5629 63.1483 78.4779C61.0956 77.4222 59.4827 75.8534 58.3097 73.7713C57.1661 71.6599 56.5942 69.0793 56.5942 66.0296C56.5942 64.2114 56.8288 62.3933 57.298 60.5752C57.7672 58.757 58.3977 57.0122 59.1895 55.3407C60.0106 53.6692 60.9196 52.1296 61.9167 50.7221C61.4768 48.9626 61.2569 47.0565 61.2569 45.0037C61.2569 43.4495 61.4328 41.9686 61.7847 40.561C61.902 40.1505 62.1073 39.9452 62.4005 39.9452C62.6351 39.9452 62.7378 40.0918 62.7084 40.3851C62.6205 40.9716 62.5472 41.6021 62.4885 42.2765C62.4299 42.9217 62.4005 43.6988 62.4005 44.6078C62.4005 46.3087 62.5618 47.9215 62.8844 49.4464C63.1776 49.0652 63.4709 48.7133 63.7641 48.3907C64.9665 47.0711 66.3887 45.8395 68.0309 44.6958C69.6731 43.5228 71.4912 42.5844 73.4853 41.8806C75.5087 41.1768 77.6494 40.8249 79.9074 40.8249C82.0188 40.8249 83.9542 41.2208 85.7137 42.0126C87.4732 42.775 88.8808 43.8894 89.9365 45.3556C91.0215 46.7925 91.564 48.5374 91.564 50.5901C91.564 51.8804 91.2121 53.2 90.5083 54.5489C89.8338 55.8979 88.8515 57.1442 87.5612 58.2878C86.3002 59.4022 84.7607 60.3112 82.9425 61.015C81.1537 61.7188 79.145 62.0707 76.9163 62.0707C73.9838 62.0707 71.3006 61.4256 68.8666 60.1353C66.4327 58.845 64.5412 56.8802 63.1923 54.241C62.0193 56.3231 61.1542 58.4345 60.5971 60.5752C60.0399 62.7159 59.7613 64.7539 59.7613 66.6894C59.7613 69.5046 60.2305 71.7919 61.1689 73.5514C62.1073 75.3109 63.3976 76.6011 65.0398 77.4222C66.7113 78.2727 68.6174 78.6979 70.7581 78.6979C74.5703 78.6979 77.9133 77.7301 80.7872 75.7947C83.6903 73.8886 86.0803 70.9268 87.9571 66.9093C88.309 66.9093 88.4849 67.0413 88.4849 67.3052C86.6668 71.6453 84.1742 74.8563 81.0071 76.9384C77.8693 79.0498 74.2917 80.1055 70.2742 80.1055ZM65.0838 51.2939C64.7025 51.8217 64.336 52.3642 63.9841 52.9214C65.0104 55.326 66.5793 57.2615 68.6907 58.7277C70.8021 60.1939 73.456 60.9271 76.6524 60.9271C78.6758 60.9271 80.4793 60.6192 82.0628 60.0033C83.6756 59.3875 85.0246 58.5664 86.1096 57.5401C87.2239 56.5137 88.0744 55.3847 88.6609 54.153C89.2474 52.8921 89.5406 51.6311 89.5406 50.3702C89.5406 48.8159 89.1154 47.4523 88.265 46.2794C87.4439 45.1064 86.3149 44.1973 84.878 43.5522C83.4411 42.8777 81.8135 42.5404 79.9954 42.5404C78.1773 42.5404 76.3445 42.9217 74.497 43.6841C72.6789 44.4466 70.9487 45.4876 69.3065 46.8072C67.6937 48.1268 66.2861 49.6224 65.0838 51.2939Z" fill="white"/>
<path d="M89.2268 75.3988C88.9043 75.3988 88.5084 75.3255 88.0392 75.1789C87.5993 75.0323 87.2034 74.7683 86.8515 74.3871C86.529 73.9766 86.3677 73.3754 86.3677 72.5836C86.3677 71.8212 86.6169 70.9415 87.1155 69.9444C87.614 68.9474 88.0539 68.0676 88.4351 67.3052C88.1125 67.3052 87.9512 67.1732 87.9512 66.9093C87.9805 66.8213 88.1125 66.5427 88.3471 66.0735C88.5817 65.6043 88.8603 65.0472 89.1829 64.402C89.5054 63.7569 89.8133 63.1411 90.1066 62.5546C90.4292 61.9388 90.6784 61.4696 90.8544 61.147C91.2063 60.5018 91.7634 60.1793 92.5259 60.1793H95.2531C94.7546 60.5605 94.3 60.9857 93.8895 61.4549C93.5083 61.8948 93.0244 62.7159 92.4379 63.9182C92.4379 63.9182 92.3353 64.1234 92.13 64.534C91.9247 64.9445 91.6608 65.4724 91.3382 66.1175C91.045 66.7334 90.7371 67.3638 90.4145 68.009C90.1212 68.6541 89.872 69.1966 89.6667 69.6365C89.2855 70.4576 89.0362 71.1174 88.9189 71.6159C88.8016 72.0851 88.743 72.525 88.743 72.9355C88.743 73.9033 89.0656 74.3871 89.7107 74.3871C90.4145 74.3871 91.2649 73.8153 92.262 72.6716C93.083 71.7039 93.8895 70.5456 94.6812 69.1966C95.473 67.8477 96.2208 66.4548 96.9246 65.0179C97.6577 63.5809 98.3029 62.2907 98.86 61.147C99.1826 60.5018 99.7544 60.1793 100.576 60.1793H102.995C102.35 60.7071 101.69 61.4989 101.015 62.5546C100.37 63.6103 99.6518 64.9592 98.86 66.6014C98.6548 67.0413 98.3908 67.5984 98.0683 68.2729C97.7457 68.9474 97.4524 69.6658 97.1885 70.4283C96.9539 71.1907 96.8366 71.9532 96.8366 72.7156C96.8366 73.742 97.2032 74.2551 97.9363 74.2551C98.9333 74.2551 99.9011 73.566 100.839 72.1878C101.778 70.8095 102.702 69.05 103.611 66.9093C103.845 66.9093 103.977 66.924 104.007 66.9533C104.065 66.9826 104.109 67.0999 104.138 67.3052C103.816 68.097 103.42 68.962 102.951 69.9004C102.511 70.8095 101.998 71.6892 101.411 72.5397C100.854 73.3901 100.224 74.0792 99.5198 74.607C98.8454 75.1349 98.0976 75.3988 97.2765 75.3988C96.5434 75.3988 95.9422 75.1349 95.473 74.607C95.0038 74.0499 94.7692 73.2728 94.7692 72.2757C94.7692 71.484 94.9158 70.6335 95.2091 69.7245C94.7106 70.6042 94.1387 71.484 93.4936 72.3637C92.8484 73.2434 92.1593 73.9766 91.4262 74.5631C90.6931 75.1202 89.96 75.3988 89.2268 75.3988Z" fill="white"/>
<path d="M104.73 75.3988C103.616 75.3988 102.795 75.0323 102.267 74.2991C101.739 73.5367 101.475 72.613 101.475 71.528C101.475 70.3843 101.739 69.1526 102.267 67.833C102.795 66.4841 103.499 65.2231 104.378 64.0501C105.258 62.8478 106.24 61.8654 107.325 61.103C108.41 60.3406 109.495 59.9593 110.58 59.9593C111.431 59.9593 112.149 60.2379 112.736 60.7951C113.322 61.3523 113.601 62.0121 113.572 62.7745C114.451 60.7804 115.17 58.7863 115.727 56.7923C116.313 54.7689 116.607 52.7308 116.607 50.6781C116.607 49.0945 116.372 47.8922 115.903 47.0711C115.434 46.2207 114.862 45.6342 114.187 45.3116C113.513 44.9891 112.868 44.8278 112.252 44.8278C110.991 44.8278 109.715 45.3849 108.425 46.4993C107.135 47.6136 106.035 49.3291 105.126 51.6458C105.038 51.851 104.965 52.0417 104.906 52.2176C104.877 52.3642 104.833 52.6135 104.774 52.9654C103.66 52.9654 103.103 52.6428 103.103 51.9977C103.103 51.6164 103.249 51.1619 103.542 50.6341C103.836 50.0769 104.085 49.637 104.29 49.3145C105.375 47.6723 106.71 46.382 108.293 45.4436C109.877 44.5052 111.431 44.036 112.956 44.036C114.011 44.036 114.994 44.2853 115.903 44.7838C116.812 45.253 117.545 45.9861 118.102 46.9831C118.659 47.9802 118.938 49.2705 118.938 50.854C118.938 52.5548 118.674 54.4463 118.146 56.5283C117.648 58.5811 116.959 60.6631 116.079 62.7745C115.228 64.8566 114.231 66.792 113.088 68.5808C111.973 70.3696 110.8 71.8505 109.569 73.0235C108.894 73.6687 108.146 74.2258 107.325 74.695C106.534 75.1642 105.669 75.3988 104.73 75.3988ZM105.346 74.4311C106.167 74.4311 107.003 73.9912 107.853 73.1115C108.704 72.2024 109.495 71.1321 110.229 69.9004C110.551 69.3726 110.903 68.7421 111.284 68.009C111.665 67.2465 112.032 66.4988 112.384 65.7656C112.736 65.0032 112.97 64.3727 113.088 63.8742C113 62.9065 112.794 62.2467 112.472 61.8948C112.179 61.5429 111.812 61.3669 111.372 61.3669C110.58 61.3669 109.745 61.7481 108.865 62.5106C108.015 63.2437 107.208 64.1968 106.446 65.3698C105.713 66.5427 105.111 67.7597 104.642 69.0207C104.173 70.2817 103.938 71.44 103.938 72.4957C103.938 73.0235 104.041 73.478 104.246 73.8593C104.452 74.2405 104.818 74.4311 105.346 74.4311Z" fill="white"/>
<path d="M119.5 75.3988C118.298 75.3988 117.403 74.9736 116.817 74.1232C116.26 73.2435 115.981 72.1878 115.981 70.9561C115.981 69.8125 116.201 68.6248 116.641 67.3932C117.11 66.0442 117.755 64.8126 118.576 63.6982C119.427 62.5839 120.35 61.6895 121.347 61.015C122.374 60.3112 123.385 59.9593 124.382 59.9593C125.585 59.9593 126.465 60.3699 127.022 61.191C127.608 62.0121 127.901 63.0531 127.901 64.3141C127.901 65.1938 127.755 66.1175 127.462 67.0853C127.168 68.053 126.772 69.006 126.274 69.9444C126.655 70.3256 127.198 70.5163 127.901 70.5163C128.723 70.5163 129.426 70.2523 130.013 69.7245C130.599 69.1966 131.171 68.2582 131.728 66.9093C132.08 66.9093 132.256 67.0413 132.256 67.3052C131.699 68.6541 131.054 69.6512 130.321 70.2963C129.617 70.9121 128.708 71.2054 127.594 71.1761C126.919 71.1761 126.362 70.9854 125.922 70.6042C125.101 71.9532 124.119 73.0968 122.975 74.0352C121.861 74.9443 120.702 75.3988 119.5 75.3988ZM120.116 74.4311C120.79 74.4311 121.465 74.1525 122.139 73.5954C122.814 73.0089 123.429 72.349 123.987 71.6159C124.544 70.8828 124.94 70.2523 125.174 69.7245C124.705 68.8741 124.426 68.2436 124.339 67.833C124.28 67.3932 124.251 67.0706 124.251 66.8653C124.251 66.3081 124.397 65.8829 124.69 65.5897C124.984 65.2964 125.277 65.1498 125.57 65.1498C125.981 65.1498 126.333 65.3258 126.626 65.6777C126.684 65.3551 126.728 65.0618 126.758 64.7979C126.787 64.5047 126.802 64.2261 126.802 63.9622C126.802 63.1997 126.655 62.5839 126.362 62.1147C126.098 61.6162 125.673 61.3669 125.086 61.3669C124.47 61.3669 123.825 61.6309 123.151 62.1587C122.476 62.6865 121.831 63.3903 121.215 64.2701C120.629 65.1498 120.116 66.1322 119.676 67.2172C119.295 68.1263 119.001 68.9914 118.796 69.8125C118.591 70.6042 118.488 71.3373 118.488 72.0118C118.488 72.7449 118.62 73.3314 118.884 73.7713C119.148 74.2112 119.559 74.4311 120.116 74.4311Z" fill="white"/>
<path d="M124.818 87.4073C124.466 87.4073 124.173 87.3633 123.938 87.2753C123.674 87.2167 123.337 87.1874 122.926 87.1874C123.044 87.0114 123.337 86.4982 123.806 85.6478C124.246 84.8267 124.788 83.7857 125.434 82.5247C126.079 81.2931 126.768 79.9442 127.501 78.4779C128.205 77.041 128.894 75.6188 129.568 74.2112C130.243 72.7743 130.815 71.4546 131.284 70.2523C131.782 69.0207 132.105 68.0383 132.252 67.3052C132.105 67.3052 131.973 67.2759 131.856 67.2172C131.738 67.1586 131.694 67.0559 131.724 66.9093C131.724 66.9093 131.812 66.6454 131.988 66.1175C132.164 65.5897 132.34 64.9592 132.515 64.2261C132.691 63.4636 132.779 62.7745 132.779 62.1587C132.779 61.7481 132.735 61.3962 132.647 61.103C132.559 60.8098 132.398 60.6485 132.164 60.6191L134.363 60.2672C134.539 60.2379 134.7 60.2233 134.847 60.2233C134.993 60.1939 135.125 60.1793 135.243 60.1793C135.507 60.1793 135.683 60.2819 135.771 60.4872C135.888 60.6631 135.946 61.0443 135.946 61.6308C135.946 62.364 135.814 63.3024 135.551 64.446C135.316 65.5604 135.037 66.5427 134.715 67.3932C135.037 66.8653 135.448 66.1908 135.946 65.3698C136.474 64.5487 137.075 63.7129 137.75 62.8625C138.424 62.0121 139.128 61.3083 139.861 60.7511C140.594 60.1646 141.313 59.8714 142.017 59.8714C142.163 59.8714 142.354 59.9007 142.589 59.9593C143.41 60.1646 143.981 60.5752 144.304 61.191C144.656 61.7775 144.832 62.4813 144.832 63.3024C144.832 64.1821 144.656 65.1498 144.304 66.2055C143.981 67.2612 143.542 68.3022 142.984 69.3286C142.427 70.3256 141.811 71.2347 141.137 72.0558C140.316 73.0822 139.333 73.9033 138.19 74.5191C137.046 75.1349 135.873 75.4428 134.671 75.4428C133.586 75.4428 132.574 75.1642 131.636 74.607L127.369 85.12C126.958 86.117 126.548 86.7475 126.137 87.0114C125.727 87.2753 125.287 87.4073 124.818 87.4073ZM133.263 74.5191C134.084 74.5191 135.008 74.1379 136.034 73.3754C137.061 72.613 138.043 71.6452 138.982 70.4723C139.949 69.2699 140.756 68.0676 141.401 66.8653C141.841 66.0442 142.163 65.2964 142.369 64.622C142.574 63.9182 142.676 63.317 142.676 62.8185C142.676 61.6748 142.266 61.103 141.445 61.103C141.064 61.103 140.565 61.3083 139.949 61.7188C139.363 62.1294 138.674 62.8771 137.882 63.9622C137.031 65.1352 136.093 66.6161 135.067 68.4049C134.07 70.1643 133.043 72.0265 131.988 73.9912C132.34 74.3431 132.765 74.5191 133.263 74.5191Z" fill="white"/>
<path d="M149.668 75.5748C148.583 75.5748 147.6 75.2229 146.72 74.5191C145.87 73.8153 145.445 72.7449 145.445 71.308C145.445 70.1057 145.709 68.8301 146.237 67.4811C146.794 66.1322 147.512 64.8712 148.392 63.6983C149.301 62.4959 150.298 61.5282 151.383 60.7951C152.497 60.0327 153.612 59.6514 154.726 59.6514C155.283 59.6514 155.826 59.8127 156.354 60.1353C156.881 60.4579 157.145 61.015 157.145 61.8068C157.145 62.5399 156.867 63.3464 156.31 64.2261C155.752 65.1058 154.961 65.9269 153.934 66.6894C153.494 67.0119 152.937 67.3199 152.263 67.6131C151.588 67.9064 150.914 68.1556 150.239 68.3609C149.565 68.5368 149.008 68.6248 148.568 68.6248C148.421 68.9767 148.275 69.4459 148.128 70.0324C148.011 70.6189 147.952 71.2201 147.952 71.8359C147.952 72.569 148.099 73.2288 148.392 73.8153C148.685 74.4018 149.228 74.695 150.019 74.695C150.987 74.695 151.882 74.4164 152.703 73.8593C153.553 73.3021 154.301 72.5983 154.946 71.7479C155.621 70.8975 156.192 70.0324 156.662 69.1527C157.131 68.2729 157.497 67.5251 157.761 66.9093C158.113 66.9093 158.289 67.0413 158.289 67.3052C157.908 68.1263 157.468 69.0207 156.969 69.9884C156.5 70.9561 155.928 71.8652 155.254 72.7156C154.609 73.5367 153.817 74.2258 152.879 74.783C151.97 75.3109 150.899 75.5748 149.668 75.5748ZM148.876 67.833C149.286 67.833 149.975 67.6864 150.943 67.3932C151.911 67.0706 152.791 66.5721 153.582 65.8976C154.345 65.2231 154.931 64.49 155.342 63.6983C155.752 62.8772 155.958 62.188 155.958 61.6309C155.958 60.9857 155.723 60.6631 155.254 60.6631C154.902 60.6631 154.418 60.8977 153.802 61.3669C153.187 61.8361 152.424 62.6279 151.515 63.7422C150.958 64.446 150.43 65.2085 149.932 66.0296C149.433 66.8507 149.081 67.4518 148.876 67.833Z" fill="white"/>
<path d="M157.403 74.739C157.374 75.0323 157.198 75.2375 156.875 75.3548C156.582 75.4428 156.289 75.4868 155.996 75.4868C155.526 75.4868 155.175 75.5601 154.94 75.7067C154.94 75.1202 155.101 74.2991 155.424 73.2435C155.746 72.1584 156.128 71.0001 156.567 69.7685C157.037 68.5075 157.506 67.3345 157.975 66.2495C158.474 65.1352 158.884 64.2701 159.207 63.6543C159.91 62.364 160.497 61.5429 160.966 61.191C161.465 60.8391 162.037 60.6631 162.682 60.6631C163.268 60.6631 163.679 60.6925 163.913 60.7511C164.177 60.7804 164.368 60.7951 164.485 60.7951C163.84 61.147 163.078 61.9681 162.198 63.2584C161.347 64.5487 160.541 65.9856 159.779 67.5691C160.013 67.3345 160.277 67.1439 160.57 66.9973C160.893 66.8507 161.259 66.7773 161.67 66.7773C162.227 66.7773 162.711 66.88 163.122 67.0853C163.532 67.2612 164.104 67.3492 164.837 67.3492C165.394 67.3492 165.761 67.1732 165.937 66.8213C166.406 65.7656 166.89 64.7393 167.388 63.7422C167.887 62.7159 168.297 61.8654 168.62 61.191C168.796 60.8098 169.03 60.5605 169.324 60.4432C169.646 60.3259 169.998 60.2673 170.379 60.2673H172.755C172.256 60.6778 171.831 61.059 171.479 61.4109C171.157 61.7335 170.834 62.1294 170.511 62.5986C170.218 63.0678 169.837 63.7422 169.368 64.622C168.986 65.3551 168.532 66.3082 168.004 67.4811C167.476 68.6541 167.08 69.6952 166.816 70.6042C166.699 70.9268 166.597 71.308 166.509 71.7479C166.45 72.1878 166.421 72.5983 166.421 72.9795C166.421 73.4487 166.494 73.8446 166.641 74.1672C166.787 74.4898 167.036 74.651 167.388 74.651C167.945 74.651 168.517 74.4164 169.104 73.9472C169.69 73.4487 170.262 72.8182 170.819 72.0558C171.376 71.264 171.89 70.4136 172.359 69.5045C172.857 68.5955 173.283 67.7304 173.634 66.9093C173.869 66.9093 174.016 66.9386 174.074 66.9973C174.133 67.0559 174.162 67.1586 174.162 67.3052C173.81 68.1849 173.371 69.1233 172.843 70.1204C172.344 71.0881 171.758 71.9972 171.083 72.8476C170.438 73.698 169.72 74.4018 168.928 74.959C168.165 75.4868 167.344 75.7507 166.465 75.7507C165.585 75.7507 164.954 75.4868 164.573 74.959C164.221 74.4311 164.045 73.7713 164.045 72.9795C164.045 72.569 164.089 72.1291 164.177 71.6599C164.295 71.1907 164.427 70.7215 164.573 70.2523C164.69 69.9004 164.822 69.5339 164.969 69.1527C165.116 68.7421 165.277 68.3462 165.453 67.965C165.277 68.1996 165.057 68.3902 164.793 68.5368C164.529 68.6541 164.192 68.7128 163.781 68.7128C163.371 68.7128 163.034 68.6541 162.77 68.5368C162.506 68.4195 162.227 68.3022 161.934 68.1849C161.641 68.0676 161.259 68.009 160.79 68.009C160.497 68.009 160.189 68.0676 159.866 68.1849C159.573 68.3022 159.339 68.5662 159.163 68.9767C158.723 70.0031 158.342 71.0148 158.019 72.0118C157.726 73.0089 157.521 73.9179 157.403 74.739Z" fill="white"/>
<path d="M175.452 67.7011L175.189 68.3169C176.508 66.5281 177.901 65.0032 179.367 63.7422C180.863 62.4519 182.27 61.4696 183.59 60.7951C184.91 60.0913 185.951 59.7394 186.713 59.7394C187.71 59.7394 188.326 60.0033 188.561 60.5312C188.649 60.7364 188.693 60.9564 188.693 61.191C188.693 61.6309 188.546 62.0414 188.253 62.4226C187.959 62.7745 187.549 62.9505 187.021 62.9505C186.992 62.9505 186.933 62.9505 186.845 62.9505C186.757 62.9505 186.684 62.9358 186.625 62.9065C186.567 62.4959 186.42 62.144 186.185 61.8508C185.951 61.5575 185.496 61.4109 184.822 61.4109C184.059 61.4109 183.311 61.7335 182.578 62.3786C181.875 62.9945 181.273 63.8449 180.775 64.9299C180.306 65.9856 180.042 67.1732 179.983 68.4928C179.954 69.4019 180.012 70.3256 180.159 71.264C180.335 72.1731 180.643 72.9355 181.083 73.5514C181.523 74.1379 182.138 74.4311 182.93 74.4311C183.634 74.4311 184.279 74.1672 184.866 73.6393C185.452 73.1115 185.995 72.4517 186.493 71.6599C186.992 70.8388 187.432 70.0031 187.813 69.1527C188.194 68.3022 188.531 67.5545 188.825 66.9093C189.176 66.9093 189.352 67.0413 189.352 67.3052C188.795 68.6541 188.194 69.9737 187.549 71.264C186.933 72.5543 186.185 73.6247 185.306 74.4751C184.426 75.2962 183.355 75.7067 182.094 75.7067C180.658 75.7067 179.573 75.2522 178.839 74.3431C178.106 73.4047 177.681 72.1878 177.564 70.6922C177.447 69.1966 177.608 67.5838 178.048 65.8536C177.051 66.9973 176.244 68.009 175.628 68.8887C175.042 69.7391 174.514 70.6042 174.045 71.484C173.605 72.3637 173.121 73.4047 172.593 74.6071C172.447 74.959 172.256 75.1496 172.021 75.1789C171.816 75.2082 171.479 75.2229 171.01 75.2229H170.174C170.086 75.2229 169.983 75.2669 169.866 75.3548C169.749 75.4135 169.631 75.4721 169.514 75.5308C169.866 74.827 170.233 74.0939 170.614 73.3314C170.966 72.569 171.391 71.6746 171.889 70.6482C172.388 69.6218 172.974 68.3755 173.649 66.9093C173.708 66.8213 173.884 66.4108 174.177 65.6777C174.499 64.9152 174.939 63.9475 175.496 62.7745C176.083 61.5429 176.655 60.6338 177.212 60.0473C177.769 59.4608 178.4 59.1676 179.103 59.1676C179.367 59.1676 179.573 59.1969 179.719 59.2555C179.866 59.3142 180.159 59.3435 180.599 59.3435C179.543 60.4872 178.649 61.7482 177.916 63.1264C177.212 64.5047 176.391 66.0296 175.452 67.7011Z" fill="white"/>
<path d="M196.334 59.9593C197.536 59.9593 198.416 60.3699 198.973 61.191C199.56 62.0121 199.853 63.0531 199.853 64.3141C199.853 65.4577 199.619 66.6747 199.149 67.965C198.68 69.226 198.035 70.4283 197.214 71.5719C196.422 72.6863 195.528 73.61 194.531 74.3431C193.534 75.0469 192.507 75.3988 191.452 75.3988C190.249 75.3988 189.355 74.9736 188.768 74.1232C188.211 73.2435 187.933 72.1878 187.933 70.9561C187.933 69.8125 188.153 68.6248 188.592 67.3932C189.062 66.0442 189.707 64.8126 190.528 63.6982C191.378 62.5839 192.302 61.6895 193.299 61.015C194.325 60.3112 195.337 59.9593 196.334 59.9593ZM192.067 74.4311C192.771 74.4311 193.504 74.1232 194.267 73.5074C195.059 72.8622 195.792 72.0265 196.466 71.0001C197.141 69.9737 197.683 68.8447 198.094 67.6131C198.534 66.3815 198.753 65.1645 198.753 63.9622C198.753 63.1997 198.607 62.5839 198.314 62.1147C198.05 61.6162 197.624 61.3669 197.038 61.3669C196.422 61.3669 195.777 61.6309 195.103 62.1587C194.428 62.6865 193.783 63.3903 193.167 64.2701C192.581 65.1498 192.067 66.1322 191.628 67.2172C191.246 68.1263 190.953 68.9914 190.748 69.8125C190.543 70.6042 190.44 71.3373 190.44 72.0118C190.44 72.7449 190.572 73.3314 190.836 73.7713C191.1 74.2112 191.51 74.4311 192.067 74.4311Z" fill="white"/>
</svg>
