<svg width="279" height="123" viewBox="0 0 279 123" fill="none" xmlns="http://www.w3.org/2000/svg">
<path d="M41.3266 64.816C40.26 64.816 39.172 64.7733 38.0626 64.688C36.996 64.6453 35.908 64.5813 34.7986 64.496C33.0493 67.0986 30.8946 69.552 28.3346 71.856C25.8173 74.16 23.0226 76.016 19.9506 77.424C16.8786 78.8746 13.7 79.6 10.4146 79.6C8.06796 79.6 6.1693 79.2373 4.71863 78.512C3.26796 77.8293 2.2013 76.9333 1.51863 75.824C0.835962 74.7573 0.494629 73.6693 0.494629 72.56C0.494629 71.152 1.07063 69.7226 2.22263 68.272C3.37463 66.8213 5.18796 65.5626 7.66263 64.496C9.96663 63.5146 12.484 62.8533 15.2146 62.512C17.9453 62.1706 20.804 62 23.7906 62C26.82 62 29.8706 62.0213 32.9426 62.064C34.4786 59.0346 35.2466 56.2826 35.2466 53.808C35.2466 50.992 34.6066 48.752 33.3266 47.088C32.0893 45.3813 30.2546 44.528 27.8226 44.528C26.8413 44.528 26.0306 44.6773 25.3906 44.976C24.7933 45.2746 24.2173 45.5946 23.6626 45.936C23.108 46.2346 22.4253 46.4266 21.6146 46.512C20.9746 46.5546 20.3346 46.448 19.6946 46.192C19.0973 45.936 18.7986 45.4666 18.7986 44.784C18.7986 44.272 18.9693 43.8453 19.3106 43.504C19.6946 43.12 20.036 42.9066 20.3346 42.864C21.572 42.736 22.5106 42.6293 23.1506 42.544C23.7906 42.4586 24.3026 42.3733 24.6866 42.288C25.1133 42.2026 25.54 42.0746 25.9666 41.904C26.3933 41.6906 26.9906 41.392 27.7586 41.008C29.8066 39.984 31.7693 38.64 33.6466 36.976C35.5666 35.312 37.2733 33.456 38.7666 31.408C40.26 29.3173 41.4333 27.1413 42.2866 24.88C43.1826 22.576 43.6306 20.3146 43.6306 18.096C43.6306 15.3653 42.9906 13.104 41.7106 11.312C40.4733 9.51997 38.852 8.19731 36.8466 7.34398C34.884 6.44797 32.8146 5.99997 30.6386 5.99997C28.1213 5.99997 25.6893 6.55464 23.3426 7.66397C21.0386 8.73064 18.9693 10.2026 17.1346 12.08C15.3 13.9573 13.8493 16.112 12.7826 18.544C11.716 20.9333 11.1826 23.4506 11.1826 26.096C11.1826 27.8453 11.5666 29.2746 12.3346 30.384C13.1026 31.4933 14.3826 32.048 16.1746 32.048C17.796 32.048 19.2253 31.6 20.4626 30.704C21.7 29.808 22.7453 28.656 23.5986 27.248C24.4946 25.7973 25.1773 24.2613 25.6466 22.64C26.116 20.976 26.3933 19.3973 26.4786 17.904V16.176C26.4786 15.792 26.6066 15.6 26.8626 15.6C27.332 15.6 27.6306 15.9626 27.7586 16.688C27.972 17.5413 28.036 18.48 27.9506 19.504C27.8653 21.2106 27.46 22.9173 26.7346 24.624C26.052 26.3306 25.1133 27.888 23.9186 29.296C22.7666 30.704 21.4226 31.8346 19.8866 32.688C18.3933 33.5413 16.7933 33.968 15.0866 33.968C12.74 33.968 11.012 33.1786 9.90263 31.6C8.83596 30.0213 8.30263 28.1013 8.30263 25.84C8.30263 23.3226 8.7933 20.9546 9.77463 18.736C10.7986 16.5173 12.164 14.512 13.8706 12.72C15.62 10.8853 17.5613 9.30664 19.6946 7.98397C21.828 6.66131 24.0253 5.63731 26.2866 4.91198C28.5906 4.18664 30.788 3.82397 32.8786 3.82397C36.2493 3.82397 39.0653 4.50664 41.3266 5.87197C43.588 7.19464 45.2946 8.96531 46.4466 11.184C47.6413 13.36 48.2386 15.7493 48.2386 18.352C48.2386 20.784 47.684 23.1733 46.5746 25.52C45.4653 27.824 44.0146 30.0426 42.2226 32.176C40.4306 34.2666 38.468 36.1653 36.3346 37.872C34.244 39.5786 32.1746 41.008 30.1266 42.16C33.0706 42.5866 35.3533 43.7386 36.9746 45.616C38.596 47.4506 39.4066 49.6693 39.4066 52.272C39.4066 53.7226 39.1293 55.28 38.5746 56.944C38.02 58.6506 37.252 60.3786 36.2706 62.128C36.8253 62.128 37.3586 62.128 37.8706 62.128C41.028 62.128 43.8226 61.9786 46.2546 61.68C48.7293 61.424 50.6706 60.8906 52.0786 60.08C53.4866 59.2693 54.1906 58.0746 54.1906 56.496V56.24C54.1906 55.856 54.2333 55.664 54.3186 55.664C54.404 55.664 54.4893 55.728 54.5746 55.856C54.66 55.984 54.724 56.112 54.7666 56.24C54.98 56.7093 55.0866 57.2 55.0866 57.712C55.0866 58.5226 54.788 59.376 54.1906 60.272C53.636 61.2106 52.6546 62.064 51.2466 62.832C49.924 63.5573 48.4306 64.0693 46.7666 64.368C45.1453 64.6666 43.332 64.816 41.3266 64.816ZM10.9906 77.808C13.8493 77.808 16.58 77.168 19.1826 75.888C21.828 74.608 24.2173 72.9226 26.3506 70.832C28.5266 68.784 30.34 66.5866 31.7906 64.24C29.1453 63.984 26.5213 63.8133 23.9186 63.728C21.316 63.6853 18.756 63.8986 16.2386 64.368C13.7213 64.88 11.268 65.8613 8.87863 67.312C6.91596 68.5066 5.63596 69.6373 5.03863 70.704C4.4413 71.7706 4.14263 72.6666 4.14263 73.392C4.14263 74.4586 4.65463 75.4613 5.67863 76.4C6.70263 77.3386 8.4733 77.808 10.9906 77.808Z" fill="white"/>
<path d="M59.6639 54.192C58.6826 54.192 57.8079 53.9146 57.0399 53.36C56.3146 52.8053 55.9519 51.6746 55.9519 49.968C55.9519 49.2426 55.9946 48.56 56.0799 47.92C56.2079 47.28 56.3573 46.5973 56.5279 45.872C56.1439 46.512 55.6106 47.3013 54.9279 48.24C54.2453 49.1786 53.4773 50.096 52.6239 50.992C51.8133 51.888 50.9599 52.6346 50.0639 53.232C49.2106 53.8293 48.3999 54.128 47.6319 54.128C46.5226 54.128 45.6266 53.6373 44.9439 52.656C44.2613 51.632 43.9199 50.3093 43.9199 48.688C43.9199 46.9386 44.3253 45.0613 45.1359 43.056C45.9466 41.0506 47.0559 39.1306 48.4639 37.2959C49.8719 35.4613 51.4933 33.968 53.3279 32.816C55.1626 31.664 57.0826 31.088 59.0879 31.088C60.0693 31.088 61.0079 31.2586 61.9039 31.6C62.7999 31.8986 63.5893 32.4106 64.2719 33.136C64.5706 33.4346 64.7199 33.776 64.7199 34.16C64.7199 34.416 64.6133 34.6293 64.3999 34.8C64.1866 34.9706 63.9093 35.0133 63.5679 34.928C63.0986 33.4346 62.0959 32.688 60.5599 32.688C59.8346 32.688 59.0026 32.9226 58.0639 33.392C56.9119 33.9893 55.6746 34.9493 54.3519 36.272C53.0719 37.552 51.8559 39.024 50.7039 40.688C49.5946 42.3093 48.6773 43.952 47.9519 45.6159C47.2266 47.2799 46.8639 48.7946 46.8639 50.16C46.8639 51.568 47.3973 52.272 48.4639 52.272C49.4026 52.272 50.3626 51.824 51.3439 50.928C52.3679 50.032 53.3279 48.9226 54.2239 47.6C55.1626 46.2346 56.0159 44.8906 56.7839 43.568C57.5519 42.2453 58.1493 41.1786 58.5759 40.368C59.2159 39.216 59.8133 38.256 60.3679 37.488C60.9226 36.72 61.7119 36.336 62.7359 36.336C63.2053 36.336 63.6746 36.4 64.1439 36.528C64.6133 36.656 65.1039 36.6773 65.6159 36.592C64.3359 37.872 63.2053 39.3866 62.2239 41.136C61.2853 42.8853 60.5599 44.6133 60.0479 46.32C59.5359 47.984 59.2799 49.392 59.2799 50.544C59.2799 51.824 59.7066 52.464 60.5599 52.464C61.4133 52.464 62.3306 51.888 63.3119 50.736C64.2933 49.5413 65.2106 48.2186 66.0639 46.768C66.2773 46.768 66.4266 46.8533 66.5119 47.024C66.6399 47.1946 66.7039 47.3653 66.7039 47.536C66.1066 48.6026 65.4239 49.648 64.6559 50.672C63.9306 51.696 63.1413 52.5493 62.2879 53.232C61.4773 53.872 60.6026 54.192 59.6639 54.192Z" fill="white"/>
<path d="M67.6259 51.0559C67.6259 51.4826 67.7112 51.8879 67.8819 52.2719C68.0952 52.6133 68.4365 52.7839 68.9059 52.7839C69.7592 52.7839 70.6339 52.3359 71.5299 51.4399C72.4259 50.5013 73.3432 49.3066 74.2819 47.8559C75.2632 46.3626 76.2232 44.8266 77.1618 43.2479C78.6552 40.7306 79.9565 38.6399 81.0658 36.9759C82.2178 35.3119 83.2845 34.0746 84.2659 33.2639C84.9059 32.7093 85.4605 32.3679 85.9299 32.2399C86.3992 32.0693 86.8685 31.9839 87.3379 31.9839H87.7859C89.5352 31.9839 90.0259 32.7946 89.2579 34.4159L86.9538 39.2159C86.5698 39.9839 86.1005 40.9439 85.5459 42.0959C85.0339 43.2053 84.5218 44.3573 84.0098 45.552C83.4978 46.704 83.0925 47.8133 82.7939 48.8799C82.4952 49.9039 82.3885 50.7359 82.4739 51.3759C82.5592 52.0159 82.9432 52.3359 83.6259 52.3359C84.1805 52.3359 84.8418 51.8666 85.6098 50.9279C86.4205 49.9466 87.2739 48.7093 88.1699 47.2159C89.1085 45.7226 90.0472 44.1439 90.9859 42.4799C91.9672 40.8159 92.9272 39.2373 93.8659 37.7439C94.8472 36.2506 95.7645 35.0559 96.6179 34.1599C96.8312 33.9466 97.3005 33.5413 98.0258 32.9439C98.7512 32.3039 99.4552 31.9839 100.138 31.9839H100.586C101.354 31.9839 101.887 32.1759 102.186 32.5599C102.485 32.9013 102.421 33.5199 101.994 34.4159L99.7539 39.2159C99.3699 39.9839 98.9005 40.9439 98.3459 42.0959C97.8339 43.2053 97.3219 44.3573 96.8099 45.552C96.3405 46.704 95.9565 47.8133 95.6579 48.8799C95.4019 49.9039 95.3165 50.7359 95.4019 51.3759C95.5299 52.0159 95.9565 52.3359 96.6819 52.3359C97.7485 52.3359 98.7939 51.7813 99.8179 50.6719C100.885 49.5626 101.887 48.1973 102.826 46.5759C103.765 44.9119 104.597 43.2693 105.322 41.6479C105.493 41.6479 105.663 41.7119 105.834 41.8399C106.005 41.9253 106.09 42.0533 106.09 42.2239C105.322 44.1439 104.426 45.9999 103.402 47.7919C102.421 49.5839 101.29 51.0559 100.01 52.2079C98.7299 53.3599 97.2579 53.9359 95.5939 53.9359C94.1859 53.9359 93.2259 53.5093 92.7139 52.6559C92.2019 51.8026 92.0312 50.6719 92.2019 49.2639C92.4152 47.8133 92.8419 46.2133 93.4818 44.4639C94.1645 42.6719 94.9752 40.8586 95.9138 39.0239C96.8525 37.1893 97.8125 35.4613 98.7939 33.8399C98.9645 33.5413 98.9645 33.3919 98.7939 33.3919C98.6659 33.3919 98.3885 33.6266 97.9619 34.0959C97.5352 34.5653 97.2792 34.8426 97.1938 34.9279C96.0845 36.1653 95.0392 37.6159 94.0579 39.2799C93.1192 40.9013 92.1805 42.5653 91.2419 44.2719C90.3459 45.9786 89.4285 47.5786 88.4899 49.0719C87.5512 50.5226 86.5699 51.6959 85.5459 52.5919C84.5219 53.4879 83.3912 53.9359 82.1539 53.9359C80.7885 53.9359 79.9139 53.3813 79.5299 52.2719C79.1885 51.1199 79.2312 49.584 79.6579 47.6639C80.1272 45.7439 80.9165 43.5893 82.0258 41.1999C83.1352 38.8106 84.4579 36.3573 85.9939 33.8399C86.1645 33.5413 86.1432 33.3919 85.9299 33.3919C85.7165 33.3919 85.2685 33.7333 84.5859 34.4159C84.1165 34.8853 83.6472 35.4186 83.1779 36.0159C82.7512 36.6133 82.1752 37.5093 81.4499 38.7039C80.7245 39.8559 79.7005 41.5839 78.3779 43.8879C77.3965 45.5946 76.3725 47.2373 75.3058 48.816C74.2818 50.3946 73.1939 51.6959 72.0419 52.7199C70.8899 53.7013 69.6312 54.1919 68.2659 54.1919C67.2419 54.1919 66.3245 53.8933 65.5138 53.2959C64.7032 52.6559 64.2979 51.7386 64.2979 50.5439C64.2979 49.8186 64.4685 49.0293 64.8099 48.1759C65.1085 47.3226 65.5565 46.5973 66.1539 45.9999C66.7939 45.4026 67.5618 45.1466 68.4578 45.2319C69.0552 45.2746 69.5885 45.5093 70.0579 45.9359C69.2899 46.6613 68.6925 47.5146 68.2659 48.4959C67.8392 49.4773 67.6259 50.3306 67.6259 51.0559Z" fill="white"/>
<path d="M124.667 46.896C123.984 47.3226 123.344 47.6 122.747 47.728C122.149 47.8133 121.552 47.8559 120.955 47.8559C119.973 47.8559 119.163 47.5786 118.523 47.0239C117.328 48.9866 115.899 50.6506 114.235 52.0159C112.613 53.3386 110.928 54 109.179 54C107.429 54 106.128 53.3813 105.275 52.144C104.464 50.864 104.059 49.3279 104.059 47.5359C104.059 45.8719 104.379 44.1439 105.019 42.3519C105.701 40.3893 106.64 38.5973 107.835 36.9759C109.072 35.3546 110.416 34.0533 111.867 33.0719C113.36 32.0479 114.832 31.5359 116.283 31.5359C118.032 31.5359 119.312 32.1333 120.123 33.3279C120.976 34.5226 121.403 36.0373 121.403 37.872C121.403 39.152 121.189 40.4959 120.763 41.9039C120.336 43.312 119.76 44.6986 119.035 46.0639C119.589 46.6186 120.379 46.896 121.403 46.896C121.787 46.896 122.171 46.8533 122.555 46.7679C122.939 46.6826 123.387 46.4906 123.899 46.192C124.155 46.192 124.347 46.2773 124.475 46.4479C124.603 46.6186 124.667 46.768 124.667 46.896ZM110.075 52.5919C111.056 52.5919 112.037 52.1866 113.019 51.3759C114 50.5226 114.896 49.5626 115.707 48.4959C116.517 47.4293 117.093 46.5119 117.435 45.7439C116.752 44.5066 116.347 43.5893 116.219 42.992C116.133 42.352 116.091 41.8826 116.091 41.584C116.091 40.7733 116.304 40.1546 116.731 39.728C117.157 39.3013 117.584 39.0879 118.011 39.0879C118.608 39.0879 119.12 39.3439 119.547 39.8559C119.632 39.3866 119.696 38.96 119.739 38.576C119.781 38.1493 119.803 37.744 119.803 37.36C119.803 36.2506 119.589 35.3546 119.163 34.6719C118.779 33.9466 118.16 33.584 117.307 33.584C116.411 33.584 115.472 33.968 114.491 34.736C113.509 35.504 112.571 36.5279 111.675 37.8079C110.821 39.0879 110.075 40.5173 109.435 42.096C108.88 43.4186 108.453 44.6773 108.155 45.872C107.856 47.024 107.707 48.0906 107.707 49.0719C107.707 50.1386 107.899 50.992 108.283 51.632C108.667 52.272 109.264 52.5919 110.075 52.5919Z" fill="white"/>
<path d="M136.69 46.576C135.282 48.6667 133.661 50.48 131.826 52.016C129.991 53.5093 128.221 54.256 126.514 54.256C125.277 54.256 124.274 53.872 123.506 53.104C122.738 52.336 122.354 51.2267 122.354 49.776C122.354 48.5813 122.61 47.4933 123.122 46.512C123.591 45.488 124.21 44.6773 124.978 44.08C125.746 43.44 126.535 43.12 127.346 43.12C128.071 43.12 128.647 43.3973 129.074 43.952C127.879 44.8907 126.941 46.064 126.258 47.472C125.618 48.8373 125.298 50.1173 125.298 51.312C125.298 52.336 125.725 52.848 126.578 52.848C127.047 52.848 127.666 52.5493 128.434 51.952C129.245 51.312 130.055 50.5653 130.866 49.712C131.677 48.816 132.317 48.0267 132.786 47.344C133.213 46.7467 133.746 45.8507 134.386 44.656C135.026 43.4613 135.602 42.1173 136.114 40.624C136.626 39.1307 136.882 37.68 136.882 36.272C136.925 35.1627 136.754 34.3093 136.37 33.712C136.029 33.1147 135.559 32.816 134.962 32.816C134.109 32.816 133.341 33.136 132.658 33.776C131.975 34.416 131.25 35.6107 130.482 37.36C129.927 37.4027 129.565 37.3173 129.394 37.104C129.223 36.8907 129.138 36.656 129.138 36.4C129.138 35.888 129.501 35.248 130.226 34.48C130.951 33.712 131.847 33.0293 132.914 32.432C133.981 31.792 135.005 31.472 135.986 31.472C137.351 31.472 138.418 31.92 139.186 32.816C139.997 33.712 140.402 34.9493 140.402 36.528C140.402 37.3813 140.274 38.2987 140.018 39.28C139.805 40.2187 139.485 41.1787 139.058 42.16C139.911 41.136 140.85 40.0693 141.874 38.96C142.898 37.808 143.879 36.7413 144.818 35.76C145.799 34.736 146.653 33.904 147.378 33.264C148.103 32.5813 148.594 32.2187 148.85 32.176C149.405 32.3467 149.725 32.624 149.81 33.008C149.938 33.392 149.981 33.7547 149.938 34.096C149.895 34.3947 149.789 34.7787 149.618 35.248C149.49 35.6747 149.191 36.272 148.722 37.04C147.911 38.4053 147.122 39.8773 146.354 41.456C145.586 42.992 144.711 44.9547 143.73 47.344C145.693 44.528 147.741 41.968 149.874 39.664C152.05 37.36 154.162 35.4613 156.21 33.968C157.191 33.1573 158.173 32.5173 159.154 32.048C160.178 31.5787 161.095 31.344 161.906 31.344C162.93 31.344 163.762 31.6853 164.402 32.368C165.042 33.0507 165.362 33.8827 165.362 34.864C165.362 35.6747 165.149 36.4427 164.722 37.168C164.295 37.8933 163.805 38.4907 163.25 38.96C162.695 39.3867 162.226 39.6 161.842 39.6C161.586 39.6 161.33 39.472 161.074 39.216C161.415 38.7467 161.778 38.2133 162.162 37.616C162.589 37.0187 162.887 36.4427 163.058 35.888C163.186 35.376 163.25 34.864 163.25 34.352C163.25 33.7547 163.122 33.3493 162.866 33.136C162.61 32.88 162.247 32.752 161.778 32.752C160.839 32.752 159.858 33.264 158.834 34.288C157.81 35.312 156.871 36.6347 156.018 38.256C155.165 39.8347 154.461 41.52 153.906 43.312C153.351 45.104 153.053 46.7467 153.01 48.24C152.967 49.3493 153.138 50.416 153.522 51.44C153.906 52.4213 154.674 52.912 155.826 52.912C157.149 52.912 158.45 52.3787 159.73 51.312C161.053 50.2453 162.311 48.8587 163.506 47.152C164.701 45.4027 165.746 43.568 166.642 41.648C166.813 41.648 166.983 41.6907 167.154 41.776C167.325 41.8187 167.41 41.968 167.41 42.224C166.471 44.3573 165.341 46.3413 164.018 48.176C162.738 50.0107 161.309 51.4827 159.73 52.592C158.194 53.7013 156.573 54.256 154.866 54.256C153.074 54.256 151.709 53.6587 150.77 52.464C149.874 51.2693 149.426 49.8187 149.426 48.112C149.426 46.6187 149.725 44.9547 150.322 43.12C150.962 41.2853 151.73 39.6213 152.626 38.128C151.09 39.536 149.575 41.136 148.082 42.928C146.631 44.72 145.351 46.5547 144.242 48.432C143.133 50.3093 142.365 52.0373 141.938 53.616C141.341 53.616 140.935 53.36 140.722 52.848C140.509 52.2933 140.402 51.7173 140.402 51.12C140.402 49.8827 140.679 48.4533 141.234 46.832C141.789 45.2107 142.322 43.8453 142.834 42.736C143.559 41.2427 144.221 39.9413 144.818 38.832C145.415 37.68 145.927 36.72 146.354 35.952C146.183 35.952 145.821 36.2293 145.266 36.784C144.754 37.296 144.157 37.936 143.474 38.704C142.834 39.472 142.237 40.176 141.682 40.816C140.402 42.2667 139.357 43.44 138.546 44.336C137.735 45.232 137.117 45.9787 136.69 46.576Z" fill="white"/>
<path d="M166.139 53.0399C166.097 53.4666 165.841 53.7653 165.371 53.9359C164.945 54.0639 164.518 54.1279 164.091 54.1279C163.409 54.1279 162.897 54.2346 162.555 54.448C162.555 53.5946 162.79 52.3999 163.259 50.8639C163.729 49.2853 164.283 47.5999 164.923 45.8079C165.606 43.9733 166.289 42.2666 166.971 40.6879C167.697 39.0666 168.294 37.8079 168.763 36.9119C169.787 35.0346 170.641 33.8399 171.323 33.3279C172.049 32.8159 172.881 32.5599 173.819 32.5599C174.673 32.5599 175.27 32.6026 175.611 32.6879C175.995 32.7306 176.273 32.7519 176.443 32.7519C175.505 33.2639 174.395 34.4586 173.115 36.3359C171.878 38.2133 170.705 40.304 169.595 42.608C169.937 42.2666 170.321 41.9893 170.747 41.7759C171.217 41.5626 171.75 41.4559 172.347 41.4559C173.158 41.4559 173.862 41.6053 174.459 41.9039C175.057 42.1599 175.889 42.2879 176.955 42.2879C177.766 42.2879 178.299 42.0319 178.555 41.5199C179.238 39.9839 179.942 38.4906 180.667 37.0399C181.393 35.5466 181.99 34.3093 182.459 33.3279C182.715 32.7733 183.057 32.4106 183.483 32.2399C183.953 32.0693 184.465 31.9839 185.019 31.9839H188.475C187.75 32.5813 187.131 33.1359 186.619 33.6479C186.15 34.1173 185.681 34.6933 185.211 35.3759C184.785 36.0586 184.23 37.0399 183.547 38.3199C182.993 39.3866 182.331 40.7733 181.563 42.4799C180.795 44.1866 180.219 45.7013 179.835 47.0239C179.665 47.4933 179.515 48.0479 179.387 48.6879C179.302 49.3279 179.259 49.9253 179.259 50.4799C179.259 51.1626 179.366 51.7386 179.579 52.2079C179.793 52.6773 180.155 52.9119 180.667 52.9119C181.478 52.9119 182.31 52.5706 183.163 51.8879C184.017 51.1626 184.849 50.2453 185.659 49.136C186.47 47.984 187.217 46.7466 187.899 45.4239C188.625 44.1013 189.243 42.8426 189.755 41.6479C190.097 41.6479 190.31 41.6906 190.395 41.7759C190.481 41.8613 190.523 42.0106 190.523 42.2239C190.011 43.5039 189.371 44.8693 188.603 46.3199C187.878 47.7279 187.025 49.0506 186.043 50.2879C185.105 51.5253 184.059 52.5493 182.907 53.3599C181.798 54.1279 180.603 54.5119 179.323 54.5119C178.043 54.5119 177.126 54.1279 176.571 53.3599C176.059 52.5919 175.803 51.6319 175.803 50.4799C175.803 49.8826 175.867 49.2426 175.995 48.5599C176.166 47.8773 176.358 47.1946 176.571 46.5119C176.742 45.9999 176.934 45.4666 177.147 44.9119C177.361 44.3146 177.595 43.7386 177.851 43.1839C177.595 43.5253 177.275 43.8026 176.891 44.0159C176.507 44.1866 176.017 44.2719 175.419 44.2719C174.822 44.2719 174.331 44.1866 173.947 44.0159C173.563 43.8453 173.158 43.6746 172.731 43.5039C172.305 43.3333 171.75 43.2479 171.067 43.2479C170.641 43.2479 170.193 43.3333 169.723 43.5039C169.297 43.6746 168.955 44.0586 168.699 44.6559C168.059 46.1493 167.505 47.6213 167.035 49.0719C166.609 50.5226 166.31 51.8453 166.139 53.0399Z" fill="white"/>
<path d="M203.664 54.192C202.683 54.192 201.808 53.9146 201.04 53.36C200.315 52.8053 199.952 51.6746 199.952 49.968C199.952 49.2426 199.995 48.56 200.08 47.92C200.208 47.28 200.357 46.5973 200.528 45.872C200.144 46.512 199.611 47.3013 198.928 48.24C198.245 49.1786 197.477 50.096 196.624 50.992C195.813 51.888 194.96 52.6346 194.064 53.232C193.211 53.8293 192.4 54.128 191.632 54.128C190.523 54.128 189.627 53.6373 188.944 52.656C188.261 51.632 187.92 50.3093 187.92 48.688C187.92 46.9386 188.325 45.0613 189.136 43.056C189.947 41.0506 191.056 39.1306 192.464 37.2959C193.872 35.4613 195.493 33.968 197.328 32.816C199.163 31.664 201.083 31.088 203.088 31.088C204.069 31.088 205.008 31.2586 205.904 31.6C206.8 31.8986 207.589 32.4106 208.272 33.136C208.571 33.4346 208.72 33.776 208.72 34.16C208.72 34.416 208.613 34.6293 208.4 34.8C208.187 34.9706 207.909 35.0133 207.568 34.928C207.099 33.4346 206.096 32.688 204.56 32.688C203.835 32.688 203.003 32.9226 202.064 33.392C200.912 33.9893 199.675 34.9493 198.352 36.272C197.072 37.552 195.856 39.024 194.704 40.688C193.595 42.3093 192.677 43.952 191.952 45.6159C191.227 47.2799 190.864 48.7946 190.864 50.16C190.864 51.568 191.397 52.272 192.464 52.272C193.403 52.272 194.363 51.824 195.344 50.928C196.368 50.032 197.328 48.9226 198.224 47.6C199.163 46.2346 200.016 44.8906 200.784 43.568C201.552 42.2453 202.149 41.1786 202.576 40.368C203.216 39.216 203.813 38.256 204.368 37.488C204.923 36.72 205.712 36.336 206.736 36.336C207.205 36.336 207.675 36.4 208.144 36.528C208.613 36.656 209.104 36.6773 209.616 36.592C208.336 37.872 207.205 39.3866 206.224 41.136C205.285 42.8853 204.56 44.6133 204.048 46.32C203.536 47.984 203.28 49.392 203.28 50.544C203.28 51.824 203.707 52.464 204.56 52.464C205.243 52.464 205.968 52.08 206.736 51.312C207.547 50.544 208.315 49.584 209.04 48.432C209.808 47.2373 210.512 46.0426 211.152 44.848C211.792 43.6106 212.304 42.544 212.688 41.648C212.901 41.648 213.072 41.6693 213.2 41.712C213.371 41.7546 213.456 41.9253 213.456 42.224C213.413 42.3946 213.328 42.5866 213.2 42.8C213.115 42.9706 212.965 43.2906 212.752 43.76C212.411 44.4426 211.941 45.36 211.344 46.512C210.747 47.664 210.043 48.8373 209.232 50.032C208.421 51.184 207.547 52.1653 206.608 52.976C205.669 53.7866 204.688 54.192 203.664 54.192Z" fill="white"/>
<path d="M167.166 122.821C164.179 122.821 161.278 121.883 158.462 120.005C155.689 118.171 153.321 115.099 151.358 110.789C150.505 108.869 149.801 106.928 149.246 104.965C148.734 103.003 148.35 101.168 148.094 99.4612C147.838 97.7546 147.71 96.3466 147.71 95.2372C147.71 93.8719 147.859 93.1039 148.158 92.9332C148.969 93.0186 150.313 92.6772 152.19 91.9092C154.11 91.1412 156.371 90.0106 158.974 88.5172C161.619 87.0239 164.457 85.2319 167.486 83.1412C170.558 81.0079 173.63 78.6186 176.702 75.9732C179.817 73.3279 182.803 70.4692 185.662 67.3972C188.521 64.3252 191.038 61.1039 193.214 57.7332C193.513 57.2639 193.747 56.9226 193.918 56.7092C194.089 56.4959 194.259 56.3892 194.43 56.3892C194.643 56.3892 194.835 56.4959 195.006 56.7092C195.177 56.8799 195.262 57.0719 195.262 57.2852C195.262 57.6266 195.113 58.0319 194.814 58.5012C192.766 61.9146 190.334 65.2639 187.518 68.5492C184.745 71.7919 181.779 74.8426 178.622 77.7012C175.465 80.5599 172.286 83.1412 169.086 85.4452C165.886 87.7492 162.835 89.6692 159.934 91.2052C157.033 92.7412 154.473 93.7866 152.254 94.3412C152.126 94.2559 152.062 94.4692 152.062 94.9812C152.062 95.7066 152.211 96.8799 152.51 98.5012C152.809 100.08 153.257 101.893 153.854 103.941C154.494 105.947 155.262 107.995 156.158 110.085C157.779 113.883 159.678 116.485 161.854 117.893C164.073 119.344 166.355 120.069 168.702 120.069C170.195 120.069 171.731 119.771 173.31 119.173C174.889 118.576 176.339 117.744 177.662 116.677C178.985 115.653 180.009 114.437 180.734 113.029C180.99 112.603 181.182 112.389 181.31 112.389C181.609 112.389 181.758 112.56 181.758 112.901C181.758 113.029 181.715 113.157 181.63 113.285C181.587 113.456 181.459 113.776 181.246 114.245C180.649 115.44 179.646 116.699 178.238 118.021C176.873 119.387 175.23 120.517 173.31 121.413C171.433 122.352 169.385 122.821 167.166 122.821ZM112.83 121.989C109.929 121.989 107.113 121.584 104.382 120.773C101.694 120.005 99.2619 118.853 97.0859 117.317C94.9525 115.781 93.2459 113.904 91.9659 111.685C90.7285 109.467 90.1099 106.949 90.1099 104.133C90.1099 102.085 90.4085 100.272 91.0059 98.6932C91.6459 97.0719 92.4139 95.7279 93.3099 94.6612C94.2485 93.5946 95.1659 92.7839 96.0619 92.2292C97.0005 91.6746 97.7685 91.3972 98.3659 91.3972C98.7925 91.3972 99.0059 91.5252 99.0059 91.7812C99.0059 91.9946 98.8992 92.1652 98.6859 92.2932C97.7045 92.8052 96.7019 93.5519 95.6779 94.5332C94.6539 95.5146 93.8005 96.7946 93.1179 98.3732C92.4352 99.9519 92.0939 101.915 92.0939 104.261C92.0939 106.821 92.6272 109.019 93.6939 110.853C94.8032 112.645 96.2325 114.117 97.9819 115.269C99.7739 116.421 101.694 117.253 103.742 117.765C105.79 118.32 107.753 118.597 109.63 118.597C113.811 118.597 117.715 117.787 121.342 116.165C124.969 114.544 128.275 112.389 131.262 109.701C134.291 106.971 136.958 103.941 139.262 100.613C141.566 97.2852 143.465 93.9146 144.958 90.5012C145.513 89.2639 146.174 87.7919 146.942 86.0852C147.71 84.3359 148.542 82.4799 149.438 80.5172C150.334 78.5546 151.209 76.6346 152.062 74.7572C152.915 72.8799 153.683 71.1946 154.366 69.7012C155.091 68.1652 155.667 66.9919 156.094 66.1812C153.235 66.5226 150.142 66.8426 146.814 67.1412C143.529 67.3972 140.393 67.9519 137.406 68.8052C134.078 69.7439 131.347 71.1092 129.214 72.9012C127.123 74.6932 125.566 76.6346 124.542 78.7252C123.561 80.8159 123.07 82.7786 123.07 84.6132C123.07 86.8319 123.625 88.6666 124.734 90.1172C125.843 91.5252 127.443 92.2292 129.534 92.2292C131.113 92.2292 132.521 91.7812 133.758 90.8852C134.995 89.9466 135.977 88.7519 136.702 87.3012C137.427 85.8079 137.79 84.2292 137.79 82.5652C137.79 81.8826 137.726 81.3066 137.598 80.8372C137.47 80.3679 137.406 80.0052 137.406 79.7492C137.406 79.4506 137.513 79.3012 137.726 79.3012C138.025 79.3012 138.302 79.5572 138.558 80.0692C138.985 81.0506 139.198 82.0106 139.198 82.9492C139.198 84.9546 138.707 86.7679 137.726 88.3892C136.745 89.9679 135.486 91.2266 133.95 92.1652C132.414 93.1039 130.793 93.5732 129.086 93.5732C127.081 93.5732 125.331 93.1039 123.838 92.1652C122.387 91.1839 121.257 89.9039 120.446 88.3252C119.635 86.7466 119.23 85.0399 119.23 83.2052C119.23 81.1146 119.806 79.0026 120.958 76.8692C122.11 74.6932 123.966 72.7306 126.526 70.9812C129.086 69.1892 132.457 67.8239 136.638 66.8852C140.137 66.1172 143.699 65.6266 147.326 65.4132C150.953 65.1572 154.153 64.9012 156.926 64.6452C158.419 62.3412 159.635 60.8906 160.574 60.2932C161.513 59.6532 162.366 59.3332 163.134 59.3332C163.902 59.3332 164.499 59.5466 164.926 59.9732C165.395 60.3999 165.63 60.9119 165.63 61.5092C165.63 62.3626 165.033 63.2799 163.838 64.2612C162.686 65.1999 160.723 65.8186 157.95 66.1172C156.585 68.6346 155.326 71.4506 154.174 74.5652C153.022 77.6372 151.87 80.8586 150.718 84.2292C149.566 87.5999 148.307 90.9492 146.942 94.2772C144.638 99.8239 141.907 104.688 138.75 108.869C135.593 113.008 131.881 116.229 127.614 118.533C123.347 120.837 118.419 121.989 112.83 121.989ZM159.166 64.5172C160.233 64.4319 161.257 64.1332 162.238 63.6212C163.219 63.0666 163.71 62.4692 163.71 61.8292C163.71 61.4026 163.497 61.1892 163.07 61.1892C162.686 61.1892 162.153 61.4452 161.47 61.9572C160.787 62.4266 160.019 63.2799 159.166 64.5172Z" fill="white"/>
<path d="M180.166 88.5172C181.915 88.5172 183.195 89.1145 184.006 90.3092C184.859 91.5039 185.286 93.0185 185.286 94.8532C185.286 96.5172 184.945 98.2879 184.262 100.165C183.579 102 182.641 103.749 181.446 105.413C180.294 107.035 178.993 108.379 177.542 109.445C176.091 110.469 174.598 110.981 173.062 110.981C171.313 110.981 170.011 110.363 169.158 109.125C168.347 107.845 167.942 106.309 167.942 104.517C167.942 102.853 168.262 101.125 168.902 99.3332C169.585 97.3705 170.523 95.5785 171.718 93.9572C172.955 92.3359 174.299 91.0345 175.75 90.0532C177.243 89.0292 178.715 88.5172 180.166 88.5172ZM173.958 109.573C174.982 109.573 176.049 109.125 177.158 108.229C178.31 107.291 179.377 106.075 180.358 104.581C181.339 103.088 182.129 101.445 182.726 99.6532C183.366 97.8612 183.686 96.0905 183.686 94.3412C183.686 93.2319 183.473 92.3359 183.046 91.6532C182.662 90.9279 182.043 90.5652 181.19 90.5652C180.294 90.5652 179.355 90.9492 178.374 91.7172C177.393 92.4852 176.454 93.5092 175.558 94.7892C174.705 96.0692 173.958 97.4985 173.318 99.0772C172.763 100.4 172.337 101.659 172.038 102.853C171.739 104.005 171.59 105.072 171.59 106.053C171.59 107.12 171.782 107.973 172.166 108.613C172.55 109.253 173.147 109.573 173.958 109.573Z" fill="white"/>
<path d="M183.935 113.157C183.38 113.157 183.06 112.987 182.975 112.645C182.847 112.347 182.783 112.091 182.783 111.877C184.063 111.877 185.3 111.429 186.495 110.533C187.647 109.637 188.735 108.485 189.759 107.077C190.783 105.627 191.657 104.091 192.383 102.469C193.151 100.805 193.727 99.2266 194.111 97.7332C194.537 96.2399 194.751 95.0026 194.751 94.0212C194.751 93.2532 194.559 92.5919 194.175 92.0372C193.833 91.4399 193.236 91.1412 192.383 91.1412C191.273 91.1412 190.207 91.6319 189.183 92.6132C188.159 93.5946 187.177 94.9172 186.239 96.5812C185.3 98.2026 184.383 99.9946 183.487 101.957C183.273 101.957 183.103 101.936 182.975 101.893C182.804 101.851 182.719 101.68 182.719 101.381C183.444 99.5892 184.319 97.7759 185.343 95.9412C186.367 94.1066 187.54 92.5706 188.863 91.3332C190.185 90.0959 191.636 89.4772 193.215 89.4772C195.007 89.4772 196.265 90.0319 196.991 91.1412C197.759 92.2079 198.143 93.3599 198.143 94.5972C198.143 94.8532 198.121 95.2799 198.079 95.8772C198.036 96.4319 197.951 97.0079 197.823 97.6052C198.633 96.0692 199.529 94.5759 200.511 93.1252C201.535 91.6319 202.516 90.4586 203.455 89.6052C203.924 89.1359 204.372 88.7732 204.799 88.5172C205.225 88.2612 205.695 88.1332 206.207 88.1332C206.719 88.1332 207.145 88.2612 207.487 88.5172C207.871 88.7732 208.063 89.1786 208.063 89.7332C208.063 90.3732 207.785 90.9492 207.231 91.4612C206.676 91.9306 206.079 92.1652 205.439 92.1652C204.5 92.1652 203.967 91.7812 203.839 91.0132C202.985 91.8239 202.111 92.8692 201.215 94.1492C200.319 95.4292 199.487 96.7946 198.719 98.2452C197.951 99.6532 197.332 101.04 196.863 102.405C196.735 103.216 196.671 104.005 196.671 104.773C196.671 105.883 196.82 106.949 197.119 107.973C197.46 108.997 198.185 109.509 199.295 109.509C201.087 109.509 202.687 108.528 204.095 106.565C205.503 104.603 206.932 101.957 208.383 98.6292C208.895 98.6292 209.151 98.8212 209.151 99.2052C208.681 100.357 208.127 101.616 207.487 102.981C206.847 104.304 206.1 105.584 205.247 106.821C204.393 108.059 203.412 109.061 202.303 109.829C201.193 110.597 199.913 110.981 198.463 110.981C197.311 110.981 196.351 110.683 195.583 110.085C194.815 109.445 194.239 108.677 193.855 107.781C193.471 106.843 193.279 105.925 193.279 105.029V103.429C192.297 105.52 191.145 107.419 189.823 109.125C188.543 110.789 187.284 111.92 186.047 112.517C185.663 112.688 185.321 112.837 185.023 112.965C184.724 113.093 184.361 113.157 183.935 113.157Z" fill="white"/>
<path d="M222.297 111.173C221.316 111.173 220.441 110.896 219.673 110.341C218.948 109.787 218.585 108.656 218.585 106.949C218.585 106.224 218.628 105.541 218.713 104.901C218.841 104.261 218.991 103.579 219.161 102.853C218.777 103.493 218.244 104.283 217.561 105.221C216.879 106.16 216.111 107.077 215.257 107.973C214.447 108.869 213.593 109.616 212.697 110.213C211.844 110.811 211.033 111.109 210.265 111.109C209.156 111.109 208.26 110.619 207.577 109.637C206.895 108.613 206.553 107.291 206.553 105.669C206.553 103.92 206.959 102.043 207.769 100.037C208.58 98.0319 209.689 96.1119 211.097 94.2772C212.505 92.4425 214.127 90.9492 215.961 89.7972C217.796 88.6452 219.716 88.0692 221.721 88.0692C222.703 88.0692 223.641 88.2399 224.537 88.5812C225.433 88.8799 226.223 89.3919 226.905 90.1172C227.204 90.4159 227.353 90.7572 227.353 91.1412C227.353 91.3972 227.247 91.6105 227.033 91.7812C226.82 91.9519 226.543 91.9945 226.201 91.9092C225.732 90.4159 224.729 89.6692 223.193 89.6692C222.468 89.6692 221.636 89.9039 220.697 90.3732C219.545 90.9705 218.308 91.9305 216.985 93.2532C215.705 94.5332 214.489 96.0052 213.337 97.6692C212.228 99.2905 211.311 100.933 210.585 102.597C209.86 104.261 209.497 105.776 209.497 107.141C209.497 108.549 210.031 109.253 211.097 109.253C212.036 109.253 212.996 108.805 213.977 107.909C215.001 107.013 215.961 105.904 216.857 104.581C217.796 103.216 218.649 101.872 219.417 100.549C220.185 99.2265 220.783 98.1599 221.209 97.3492C221.849 96.1972 222.447 95.2372 223.001 94.4692C223.556 93.7012 224.345 93.3172 225.369 93.3172C225.839 93.3172 226.308 93.3812 226.777 93.5092C227.247 93.6372 227.737 93.6585 228.249 93.5732C226.969 94.8532 225.839 96.3679 224.857 98.1172C223.919 99.8665 223.193 101.595 222.681 103.301C222.169 104.965 221.913 106.373 221.913 107.525C221.913 108.805 222.34 109.445 223.193 109.445C223.876 109.445 224.601 109.061 225.369 108.293C226.18 107.525 226.948 106.565 227.673 105.413C228.441 104.219 229.145 103.024 229.785 101.829C230.425 100.592 230.937 99.5252 231.321 98.6292C231.535 98.6292 231.705 98.6505 231.833 98.6932C232.004 98.7359 232.089 98.9065 232.089 99.2052C232.047 99.3759 231.961 99.5679 231.833 99.7812C231.748 99.9519 231.599 100.272 231.385 100.741C231.044 101.424 230.575 102.341 229.977 103.493C229.38 104.645 228.676 105.819 227.865 107.013C227.055 108.165 226.18 109.147 225.241 109.957C224.303 110.768 223.321 111.173 222.297 111.173Z" fill="white"/>
<path d="M230.835 110.021C230.792 110.448 230.536 110.747 230.067 110.917C229.64 111.045 229.214 111.109 228.787 111.109C228.104 111.109 227.592 111.216 227.251 111.429C227.251 110.576 227.486 109.381 227.955 107.845C228.424 106.267 228.979 104.581 229.619 102.789C230.302 100.955 230.984 99.2479 231.667 97.6692C232.392 96.0479 232.99 94.7892 233.459 93.8932C234.483 92.0159 235.336 90.8212 236.019 90.3092C236.744 89.7972 237.576 89.5412 238.515 89.5412C239.368 89.5412 239.966 89.5839 240.307 89.6692C240.691 89.7119 240.968 89.7332 241.139 89.7332C240.2 90.2452 239.091 91.4399 237.811 93.3172C236.574 95.1945 235.4 97.2852 234.291 99.5892C234.632 99.2479 235.016 98.9705 235.443 98.7572C235.912 98.5439 236.446 98.4372 237.043 98.4372C237.854 98.4372 238.558 98.5865 239.155 98.8852C239.752 99.1412 240.584 99.2692 241.651 99.2692C242.462 99.2692 242.995 99.0132 243.251 98.5012C243.934 96.9652 244.638 95.4719 245.363 94.0212C246.088 92.5279 246.686 91.2905 247.155 90.3092C247.411 89.7545 247.752 89.3919 248.179 89.2212C248.648 89.0505 249.16 88.9652 249.715 88.9652H253.171C252.446 89.5625 251.827 90.1172 251.315 90.6292C250.846 91.0985 250.376 91.6745 249.907 92.3572C249.48 93.0399 248.926 94.0212 248.243 95.3012C247.688 96.3679 247.027 97.7545 246.259 99.4612C245.491 101.168 244.915 102.683 244.531 104.005C244.36 104.475 244.211 105.029 244.083 105.669C243.998 106.309 243.955 106.907 243.955 107.461C243.955 108.144 244.062 108.72 244.275 109.189C244.488 109.659 244.851 109.893 245.363 109.893C246.174 109.893 247.006 109.552 247.859 108.869C248.712 108.144 249.544 107.227 250.355 106.117C251.166 104.965 251.912 103.728 252.595 102.405C253.32 101.083 253.939 99.8239 254.451 98.6292C254.792 98.6292 255.006 98.6719 255.091 98.7572C255.176 98.8425 255.219 98.9919 255.219 99.2052C254.707 100.485 254.067 101.851 253.299 103.301C252.574 104.709 251.72 106.032 250.739 107.269C249.8 108.507 248.755 109.531 247.603 110.341C246.494 111.109 245.299 111.493 244.019 111.493C242.739 111.493 241.822 111.109 241.267 110.341C240.755 109.573 240.499 108.613 240.499 107.461C240.499 106.864 240.563 106.224 240.691 105.541C240.862 104.859 241.054 104.176 241.267 103.493C241.438 102.981 241.63 102.448 241.843 101.893C242.056 101.296 242.291 100.72 242.547 100.165C242.291 100.507 241.971 100.784 241.587 100.997C241.203 101.168 240.712 101.253 240.115 101.253C239.518 101.253 239.027 101.168 238.643 100.997C238.259 100.827 237.854 100.656 237.427 100.485C237 100.315 236.446 100.229 235.763 100.229C235.336 100.229 234.888 100.315 234.419 100.485C233.992 100.656 233.651 101.04 233.395 101.637C232.755 103.131 232.2 104.603 231.731 106.053C231.304 107.504 231.006 108.827 230.835 110.021Z" fill="white"/>
<path d="M268.36 111.173C267.378 111.173 266.504 110.896 265.736 110.341C265.01 109.787 264.648 108.656 264.648 106.949C264.648 106.224 264.69 105.541 264.776 104.901C264.904 104.261 265.053 103.579 265.224 102.853C264.84 103.493 264.306 104.283 263.624 105.221C262.941 106.16 262.173 107.077 261.32 107.973C260.509 108.869 259.656 109.616 258.76 110.213C257.906 110.811 257.096 111.109 256.328 111.109C255.218 111.109 254.322 110.619 253.64 109.637C252.957 108.613 252.616 107.291 252.616 105.669C252.616 103.92 253.021 102.043 253.832 100.037C254.642 98.0319 255.752 96.1119 257.16 94.2772C258.568 92.4425 260.189 90.9492 262.024 89.7972C263.858 88.6452 265.778 88.0692 267.784 88.0692C268.765 88.0692 269.704 88.2399 270.6 88.5812C271.496 88.8799 272.285 89.3919 272.968 90.1172C273.266 90.4159 273.416 90.7572 273.416 91.1412C273.416 91.3972 273.309 91.6105 273.096 91.7812C272.882 91.9519 272.605 91.9945 272.264 91.9092C271.794 90.4159 270.792 89.6692 269.256 89.6692C268.53 89.6692 267.698 89.9039 266.76 90.3732C265.608 90.9705 264.37 91.9305 263.048 93.2532C261.768 94.5332 260.552 96.0052 259.4 97.6692C258.29 99.2905 257.373 100.933 256.648 102.597C255.922 104.261 255.56 105.776 255.56 107.141C255.56 108.549 256.093 109.253 257.16 109.253C258.098 109.253 259.058 108.805 260.04 107.909C261.064 107.013 262.024 105.904 262.92 104.581C263.858 103.216 264.712 101.872 265.48 100.549C266.248 99.2265 266.845 98.1599 267.272 97.3492C267.912 96.1972 268.509 95.2372 269.064 94.4692C269.618 93.7012 270.408 93.3172 271.432 93.3172C271.901 93.3172 272.37 93.3812 272.84 93.5092C273.309 93.6372 273.8 93.6585 274.312 93.5732C273.032 94.8532 271.901 96.3679 270.92 98.1172C269.981 99.8665 269.256 101.595 268.744 103.301C268.232 104.965 267.976 106.373 267.976 107.525C267.976 108.805 268.402 109.445 269.256 109.445C269.938 109.445 270.664 109.061 271.432 108.293C272.242 107.525 273.01 106.565 273.736 105.413C274.504 104.219 275.208 103.024 275.848 101.829C276.488 100.592 277 99.5252 277.384 98.6292C277.597 98.6292 277.768 98.6505 277.896 98.6932C278.066 98.7359 278.152 98.9065 278.152 99.2052C278.109 99.3759 278.024 99.5679 277.896 99.7812C277.81 99.9519 277.661 100.272 277.448 100.741C277.106 101.424 276.637 102.341 276.04 103.493C275.442 104.645 274.738 105.819 273.928 107.013C273.117 108.165 272.242 109.147 271.304 109.957C270.365 110.768 269.384 111.173 268.36 111.173Z" fill="white"/>
<path d="M93.5517 79.9812V72.3672H90.3477V70.9092H98.5737V72.3672H95.3517V79.9812H93.5517ZM103.574 80.1432C102.77 80.1432 102.068 79.9572 101.468 79.5852C100.868 79.2132 100.4 78.6732 100.064 77.9652C99.7397 77.2572 99.5777 76.4172 99.5777 75.4452C99.5777 74.4612 99.7397 73.6212 100.064 72.9252C100.4 72.2292 100.868 71.6952 101.468 71.3232C102.068 70.9392 102.77 70.7472 103.574 70.7472C104.366 70.7472 105.056 70.9452 105.644 71.3412C106.232 71.7372 106.622 72.2772 106.814 72.9612H106.616L106.796 70.9092H108.56C108.524 71.2812 108.488 71.6532 108.452 72.0252C108.428 72.3852 108.416 72.7392 108.416 73.0872V79.9812H106.598V77.9652H106.796C106.604 78.6372 106.208 79.1712 105.608 79.5672C105.02 79.9512 104.342 80.1432 103.574 80.1432ZM104.024 78.7212C104.804 78.7212 105.428 78.4452 105.896 77.8932C106.376 77.3412 106.616 76.5252 106.616 75.4452C106.616 74.3652 106.376 73.5552 105.896 73.0152C105.428 72.4632 104.804 72.1872 104.024 72.1872C103.232 72.1872 102.596 72.4632 102.116 73.0152C101.648 73.5552 101.414 74.3652 101.414 75.4452C101.414 76.5252 101.648 77.3412 102.116 77.8932C102.584 78.4452 103.22 78.7212 104.024 78.7212Z" fill="white"/>
<path d="M58.7889 18V5.31H60.6609V18H58.7889ZM63.5145 18V8.928H65.3145V12.618H69.9045V8.928H71.7045V18H69.9045V14.04H65.3145V18H63.5145ZM76.3921 18V10.386H73.1881V8.928H81.4141V10.386H78.1921V18H76.3921ZM87.0813 18.162C85.6173 18.162 84.4653 17.748 83.6253 16.92C82.7853 16.092 82.3653 14.946 82.3653 13.482C82.3653 12.534 82.5453 11.706 82.9053 10.998C83.2773 10.29 83.7873 9.744 84.4353 9.36C85.0953 8.964 85.8573 8.766 86.7213 8.766C87.5733 8.766 88.2873 8.946 88.8633 9.306C89.4393 9.666 89.8773 10.176 90.1773 10.836C90.4773 11.484 90.6273 12.252 90.6273 13.14V13.716H83.7873V12.672H89.3853L89.0793 12.906C89.0793 12.006 88.8753 11.31 88.4673 10.818C88.0713 10.314 87.4953 10.062 86.7393 10.062C85.8993 10.062 85.2513 10.356 84.7953 10.944C84.3393 11.52 84.1113 12.318 84.1113 13.338V13.518C84.1113 14.586 84.3693 15.39 84.8853 15.93C85.4133 16.47 86.1573 16.74 87.1173 16.74C87.6453 16.74 88.1373 16.668 88.5933 16.524C89.0613 16.368 89.5053 16.116 89.9253 15.768L90.5193 17.01C90.0993 17.382 89.5893 17.67 88.9893 17.874C88.3893 18.066 87.7533 18.162 87.0813 18.162ZM92.8524 18V8.928H94.6524V12.618H99.2424V8.928H101.042V18H99.2424V14.04H94.6524V18H92.8524ZM107.836 18.162C106.924 18.162 106.126 17.976 105.442 17.604C104.77 17.22 104.248 16.674 103.876 15.966C103.516 15.246 103.336 14.394 103.336 13.41C103.336 12.438 103.522 11.604 103.894 10.908C104.266 10.212 104.788 9.684 105.46 9.324C106.132 8.952 106.924 8.766 107.836 8.766C108.424 8.766 108.994 8.868 109.546 9.072C110.098 9.264 110.554 9.54 110.914 9.9L110.32 11.178C109.984 10.854 109.606 10.614 109.186 10.458C108.766 10.29 108.358 10.206 107.962 10.206C107.098 10.206 106.42 10.482 105.928 11.034C105.436 11.586 105.19 12.384 105.19 13.428C105.19 14.484 105.436 15.294 105.928 15.858C106.42 16.422 107.098 16.704 107.962 16.704C108.346 16.704 108.748 16.632 109.168 16.488C109.588 16.332 109.972 16.086 110.32 15.75L110.914 17.028C110.542 17.388 110.074 17.67 109.51 17.874C108.958 18.066 108.4 18.162 107.836 18.162ZM112.979 18V8.928H114.635V16.254H114.131L119.603 8.928H121.115V18H119.477V10.656H119.999L114.491 18H112.979ZM123.843 18V8.928H128.415C129.507 8.928 130.311 9.138 130.827 9.558C131.355 9.966 131.619 10.548 131.619 11.304C131.619 11.892 131.421 12.378 131.025 12.762C130.641 13.146 130.131 13.38 129.495 13.464V13.23C130.251 13.266 130.845 13.488 131.277 13.896C131.709 14.304 131.925 14.832 131.925 15.48C131.925 16.26 131.631 16.878 131.043 17.334C130.467 17.778 129.645 18 128.577 18H123.843ZM125.553 16.83H128.433C129.021 16.83 129.471 16.71 129.783 16.47C130.095 16.218 130.251 15.858 130.251 15.39C130.251 14.922 130.095 14.568 129.783 14.328C129.471 14.088 129.021 13.968 128.433 13.968H125.553V16.83ZM125.553 12.798H128.235C128.775 12.798 129.195 12.678 129.495 12.438C129.795 12.198 129.945 11.868 129.945 11.448C129.945 11.016 129.795 10.686 129.495 10.458C129.195 10.218 128.775 10.098 128.235 10.098H125.553V12.798Z" fill="white"/>
</svg>
